<?xml version="1.0" encoding="utf-8"?><svg xmlns="http://www.w3.org/2000/svg" xmlns:xlink="http://www.w3.org/1999/xlink" width="1366" height="667" preserveAspectRatio="xMidYMid" viewBox="0 0 1366 667" style="z-index:1;margin-right:-2px;display:block;background-repeat-y:initial;background-repeat-x:initial;background-color:rgb(255, 255, 255);animation-play-state:paused" ><g transform="translate(683,333.5) scale(1,1) translate(-683,-333.5)" style="transform:matrix(1, 0, 0, 1, 0, 0);animation-play-state:paused" ><path id="path0" d="M 763.4604007568275 381.3749574549735
c 0 28.05298445363963 -6.86402811099693 8.057772130300746 -14.921800241297676 8.057772130300746
S 733.6168002742322 409.42794190861315 733.6168002742322 381.3749574549735
s 6.86402811099693 -8.057772130300746 14.921800241297676 -8.057772130300746
S 763.4604007568275 353.3219730013339 763.4604007568275 381.3749574549735
z" fill="none" stroke="none" style="animation-play-state:paused" ></path>


<circle cx="0" cy="0" r="4.88084741637392" fill="#ff708e" opacity="0.9" transform="translate(762.680908203125 369.76007080078125)" style="opacity:0.9;animation-play-state:paused" ></circle>
<path id="path1" d="M 1336.2034671718106 178.91618496620248
c 0 20.545009737732762 -5.026970467743123 5.9012262012636665 -10.92819666900679 5.9012262012636665
S 1314.347073833797 199.46119470393523 1314.347073833797 178.91618496620248
s 5.026970467743123 -5.9012262012636665 10.92819666900679 -5.9012262012636665
S 1336.2034671718106 158.37117522846972 1336.2034671718106 178.91618496620248
z" fill="none" stroke="none" style="animation-play-state:paused" ></path>


<circle cx="0" cy="0" r="7.122867303546637" fill="#51cacc" opacity="0.9" transform="translate(1336.203369140625 178.90081787109375)" style="opacity:0.9;animation-play-state:paused" ></circle>
<path id="path2" d="M 81.78966510202777 171.3142551250007
c 0 23.268919539317366 -5.693459036215951 6.683625825123074 -12.377084861339025 6.683625825123074
S 57.03549537934971 194.58317466431805 57.03549537934971 171.3142551250007
s 5.693459036215951 -6.683625825123074 12.377084861339025 -6.683625825123074
S 81.78966510202777 148.04533558568335 81.78966510202777 171.3142551250007
z" fill="none" stroke="none" style="animation-play-state:paused" ></path>


<circle cx="0" cy="0" r="5.427980140675286" fill="#de9dd6" opacity="0.9" transform="translate(74.27640533447266 162.3130340576172)" style="opacity:0.9;animation-play-state:paused" ></circle>
<path id="path3" d="M 1013.1350852966748 355.08613272855206
c 0 27.310208560237108 -6.6822850732495045 7.844421607727679 -14.526706680977185 7.844421607727679
S 984.0816719347204 382.3963412887892 984.0816719347204 355.08613272855206
s 6.6822850732495045 -7.844421607727679 14.526706680977185 -7.844421607727679
S 1013.1350852966748 327.77592416831493 1013.1350852966748 355.08613272855206
z" fill="none" stroke="none" style="animation-play-state:paused" ></path>


<circle cx="0" cy="0" r="6.933404079328538" fill="#e0ff77" opacity="0.9" transform="translate(1004.1922607421875 344.6230773925781)" style="opacity:0.9;animation-play-state:paused" ></circle>
<path id="path4" d="M 305.93904623786125 202.8795999429425
c 0 36.6046445815771 -8.95645558910929 10.514100039389167 -19.470555628498456 10.514100039389167
S 266.99793498086433 239.4842445245196 266.99793498086433 202.8795999429425
s 8.95645558910929 -10.514100039389167 19.470555628498456 -10.514100039389167
S 305.93904623786125 166.2749553613654 305.93904623786125 202.8795999429425
z" fill="none" stroke="none" style="animation-play-state:paused" ></path>


<circle cx="0" cy="0" r="5.044339788556025" fill="#de9dd6" opacity="0.9" transform="translate(267.39508056640625 192.0068359375)" style="opacity:0.9;animation-play-state:paused" ></circle>
<path id="path5" d="M 334.61890859889803 244.97529375679642
c 0 22.586469439247868 -5.5264765649223495 6.487602924039281 -12.014079488961631 6.487602924039281
S 310.5907496209748 267.5617631960443 310.5907496209748 244.97529375679642
s 5.5264765649223495 -6.487602924039281 12.014079488961631 -6.487602924039281
S 334.61890859889803 222.38882431754854 334.61890859889803 244.97529375679642
z" fill="none" stroke="none" style="animation-play-state:paused" ></path>


<circle cx="0" cy="0" r="7.1188032788085644" fill="#e0ff77" opacity="0.9" transform="translate(334.37420654296875 238.27198791503906)" style="opacity:0.9;animation-play-state:paused" ></circle>
<path id="path6" d="M 1309.2274040395198 150.5463339655001
c 0 31.444696222395688 -7.69391503313937 9.031987212815784 -16.725902245955155 9.031987212815784
S 1275.7755995476093 181.9910301878958 1275.7755995476093 150.5463339655001
s 7.69391503313937 -9.031987212815784 16.725902245955155 -9.031987212815784
S 1309.2274040395198 119.10163774310442 1309.2274040395198 150.5463339655001
z" fill="none" stroke="none" style="animation-play-state:paused" ></path>


<circle cx="0" cy="0" r="7.351985656484245" fill="#ff708e" opacity="0.9" transform="translate(1295.1285400390625 160.15927124023438)" style="opacity:0.9;animation-play-state:paused" ></circle></g></svg>