<svg width="1366" height="667" viewBox="0 0 1366 667" fill="none" xmlns="http://www.w3.org/2000/svg">
<g clip-path="url(#clip0_459_191)">
<path opacity="0.9" d="M1340.12 354.26C1344.27 354.26 1347.63 350.899 1347.63 346.753C1347.63 342.607 1344.27 339.246 1340.12 339.246C1335.97 339.246 1332.61 342.607 1332.61 346.753C1332.61 350.899 1335.97 354.26 1340.12 354.26Z" fill="#FF98C0"/>
<path opacity="0.9" d="M1044.59 280.976C1047.59 280.976 1050.03 278.543 1050.03 275.541C1050.03 272.539 1047.59 270.106 1044.59 270.106C1041.59 270.106 1039.15 272.539 1039.15 275.541C1039.15 278.543 1041.59 280.976 1044.59 280.976Z" fill="#FF98C0"/>
<path opacity="0.9" d="M1199.86 566.488C1203.56 566.488 1206.56 563.486 1206.56 559.782C1206.56 556.078 1203.56 553.075 1199.86 553.075C1196.15 553.075 1193.15 556.078 1193.15 559.782C1193.15 563.486 1196.15 566.488 1199.86 566.488Z" fill="#FF98C0"/>
<path opacity="0.9" d="M87.3984 187.634C90.745 187.634 93.458 184.921 93.458 181.574C93.458 178.228 90.745 175.515 87.3984 175.515C84.0518 175.515 81.3389 178.228 81.3389 181.574C81.3389 184.921 84.0518 187.634 87.3984 187.634Z" fill="#FF98C0"/>
<path opacity="0.9" d="M793.373 147.919C796.3 147.919 798.673 145.546 798.673 142.619C798.673 139.692 796.3 137.319 793.373 137.319C790.446 137.319 788.073 139.692 788.073 142.619C788.073 145.546 790.446 147.919 793.373 147.919Z" fill="#FF98C0"/>
<path opacity="0.9" d="M274.544 311.196C278.4 311.196 281.526 308.07 281.526 304.214C281.526 300.358 278.4 297.232 274.544 297.232C270.688 297.232 267.562 300.358 267.562 304.214C267.562 308.07 270.688 311.196 274.544 311.196Z" fill="#FF98C0"/>
<path opacity="0.9" d="M546.437 4.60074C550.238 4.60074 553.319 1.51971 553.319 -2.28093C553.319 -6.08157 550.238 -9.1626 546.437 -9.1626C542.637 -9.1626 539.556 -6.08157 539.556 -2.28093C539.556 1.51971 542.637 4.60074 546.437 4.60074Z" fill="#FF98C0"/>
<path opacity="0.9" d="M699.315 560.532C701.94 560.532 704.068 558.404 704.068 555.78C704.068 553.155 701.94 551.027 699.315 551.027C696.69 551.027 694.562 553.155 694.562 555.78C694.562 558.404 696.69 560.532 699.315 560.532Z" fill="#FF98C0"/>
<path opacity="0.9" d="M246.772 660.357C250.547 660.357 253.607 657.297 253.607 653.522C253.607 649.747 250.547 646.687 246.772 646.687C242.998 646.687 239.938 649.747 239.938 653.522C239.938 657.297 242.998 660.357 246.772 660.357Z" fill="#FF98C0"/>
<path opacity="0.9" d="M148.934 371.62C152.392 371.62 155.196 368.817 155.196 365.359C155.196 361.9 152.392 359.097 148.934 359.097C145.476 359.097 142.673 361.9 142.673 365.359C142.673 368.817 145.476 371.62 148.934 371.62Z" fill="#FF98C0"/>
<path opacity="0.9" d="M863.675 469.611C867.545 469.611 870.682 466.474 870.682 462.604C870.682 458.734 867.545 455.597 863.675 455.597C859.805 455.597 856.668 458.734 856.668 462.604C856.668 466.474 859.805 469.611 863.675 469.611Z" fill="#FF98C0"/>
<path opacity="0.9" d="M91.1719 432.063C94.7294 432.063 97.6134 429.179 97.6134 425.622C97.6134 422.064 94.7294 419.18 91.1719 419.18C87.6144 419.18 84.7305 422.064 84.7305 425.622C84.7305 429.179 87.6144 432.063 91.1719 432.063Z" fill="#FF98C0"/>
<path opacity="0.9" d="M1321.46 179.692C1324.59 179.692 1327.13 177.152 1327.13 174.018C1327.13 170.884 1324.59 168.343 1321.46 168.343C1318.32 168.343 1315.78 170.884 1315.78 174.018C1315.78 177.152 1318.32 179.692 1321.46 179.692Z" fill="#FF98C0"/>
<path opacity="0.9" d="M640.421 508.845C644.031 508.845 646.957 505.919 646.957 502.309C646.957 498.699 644.031 495.773 640.421 495.773C636.811 495.773 633.885 498.699 633.885 502.309C633.885 505.919 636.811 508.845 640.421 508.845Z" fill="#FF98C0"/>
<path opacity="0.9" d="M12.2378 547.519C16.1726 547.519 19.3624 544.329 19.3624 540.394C19.3624 536.46 16.1726 533.27 12.2378 533.27C8.30305 533.27 5.11328 536.46 5.11328 540.394C5.11328 544.329 8.30305 547.519 12.2378 547.519Z" fill="#FF98C0"/>
<path opacity="0.9" d="M339.257 588.977C341.583 588.977 343.469 587.091 343.469 584.765C343.469 582.438 341.583 580.553 339.257 580.553C336.931 580.553 335.045 582.438 335.045 584.765C335.045 587.091 336.931 588.977 339.257 588.977Z" fill="#FF98C0"/>
<path opacity="0.9" d="M856.505 90.3179C860.053 90.3179 862.929 87.4414 862.929 83.8932C862.929 80.3449 860.053 77.4685 856.505 77.4685C852.957 77.4685 850.08 80.3449 850.08 83.8932C850.08 87.4414 852.957 90.3179 856.505 90.3179Z" fill="#FF98C0"/>
<path opacity="0.9" d="M486.818 136.023C490.348 136.023 493.209 133.161 493.209 129.632C493.209 126.103 490.348 123.241 486.818 123.241C483.289 123.241 480.428 126.103 480.428 129.632C480.428 133.161 483.289 136.023 486.818 136.023Z" fill="#FF98C0"/>
<path opacity="0.9" d="M195.421 101.079C198.338 101.079 200.704 98.7134 200.704 95.7957C200.704 92.878 198.338 90.5127 195.421 90.5127C192.503 90.5127 190.138 92.878 190.138 95.7957C190.138 98.7134 192.503 101.079 195.421 101.079Z" fill="#FF98C0"/>
<path opacity="0.9" d="M183.269 464.247C187.43 464.247 190.803 460.874 190.803 456.713C190.803 452.552 187.43 449.179 183.269 449.179C179.108 449.179 175.735 452.552 175.735 456.713C175.735 460.874 179.108 464.247 183.269 464.247Z" fill="#FF98C0"/>
<path opacity="0.9" d="M1213.16 482.254C1217.11 482.254 1220.31 479.052 1220.31 475.101C1220.31 471.15 1217.11 467.948 1213.16 467.948C1209.2 467.948 1206 471.15 1206 475.101C1206 479.052 1209.2 482.254 1213.16 482.254Z" fill="#FF98C0"/>
<path opacity="0.9" d="M1035.21 657.928C1038.79 657.928 1041.7 655.021 1041.7 651.435C1041.7 647.848 1038.79 644.941 1035.21 644.941C1031.62 644.941 1028.71 647.848 1028.71 651.435C1028.71 655.021 1031.62 657.928 1035.21 657.928Z" fill="#FF98C0"/>
<path opacity="0.9" d="M1116.01 665.537C1119.02 665.537 1121.47 663.092 1121.47 660.076C1121.47 657.06 1119.02 654.615 1116.01 654.615C1112.99 654.615 1110.55 657.06 1110.55 660.076C1110.55 663.092 1112.99 665.537 1116.01 665.537Z" fill="#FF98C0"/>
<path opacity="0.9" d="M56.2744 450.536C58.6593 450.536 60.5927 448.602 60.5927 446.217C60.5927 443.832 58.6593 441.899 56.2744 441.899C53.8894 441.899 51.9561 443.832 51.9561 446.217C51.9561 448.602 53.8894 450.536 56.2744 450.536Z" fill="#FF98C0"/>
<path opacity="0.9" d="M1171.04 451.079C1174.21 451.079 1176.78 448.511 1176.78 445.342C1176.78 442.174 1174.21 439.605 1171.04 439.605C1167.87 439.605 1165.3 442.174 1165.3 445.342C1165.3 448.511 1167.87 451.079 1171.04 451.079Z" fill="#FF98C0"/>
<path opacity="0.9" d="M1344.8 165.545C1347.06 165.545 1348.89 163.713 1348.89 161.454C1348.89 159.195 1347.06 157.364 1344.8 157.364C1342.54 157.364 1340.71 159.195 1340.71 161.454C1340.71 163.713 1342.54 165.545 1344.8 165.545Z" fill="#FF98C0"/>
<path opacity="0.9" d="M506.911 264.216C510.029 264.216 512.556 261.688 512.556 258.571C512.556 255.453 510.029 252.925 506.911 252.925C503.793 252.925 501.266 255.453 501.266 258.571C501.266 261.688 503.793 264.216 506.911 264.216Z" fill="#FF98C0"/>
</g>
<defs>
<clipPath id="clip0_459_191">
<rect width="1366" height="667" fill="white"/>
</clipPath>
</defs>
</svg>
