<?xml version="1.0" encoding="utf-8"?><svg xmlns="http://www.w3.org/2000/svg" xmlns:xlink="http://www.w3.org/1999/xlink" width="1366" height="667" preserveAspectRatio="xMidYMid" viewBox="0 0 1366 667" style="z-index:1;margin-right:-2px;display:block;background-repeat-y:initial;background-repeat-x:initial;background-color:rgb(241, 242, 243);animation-play-state:paused" ><g transform="translate(683,333.5) scale(1,1) translate(-683,-333.5)" style="transform:matrix(1, 0, 0, 1, 0, 0);animation-play-state:paused" ><path id="path0" d="M 1351.786604515186 340.5194217935191
c 0 21.693315702882746 -5.307938948577693 6.23105876572164 -11.538997714299333 6.23105876572164
S 1328.7086090865873 362.2127374964018 1328.7086090865873 340.5194217935191
s 5.307938948577693 -6.23105876572164 11.538997714299333 -6.23105876572164
S 1351.786604515186 318.82610609063636 1351.786604515186 340.5194217935191
z" fill="none" stroke="none" style="animation-play-state:paused" ></path>


<circle cx="0" cy="0" r="7.507203815055123" fill="#ff98c0" opacity="0.9" transform="translate(1340.1199951171875 346.7527160644531)" style="opacity:0.9;animation-play-state:paused" ></circle>
<path id="path1" d="M 1063.586043971044 264.6825293656797
c 0 21.476815042407733 -5.254965382716785 6.168872405797965 -11.42383778851475 6.168872405797965
S 1040.7383683940147 286.15934440808746 1040.7383683940147 264.6825293656797
s 5.254965382716785 -6.168872405797965 11.42383778851475 -6.168872405797965
S 1063.586043971044 243.205714323272 1063.586043971044 264.6825293656797
z" fill="none" stroke="none" style="animation-play-state:paused" ></path>


<circle cx="0" cy="0" r="5.435421349628189" fill="#ff98c0" opacity="0.9" transform="translate(1044.5894775390625 275.54095458984375)" style="opacity:0.9;animation-play-state:paused" ></circle>
<path id="path2" d="M 1200.6856621625582 549.7488652705603
c 0 22.27649426441236 -5.450631575334938 6.398567501480146 -11.849199076815085 6.398567501480146
S 1176.9872640089282 572.0253595349726 1176.9872640089282 549.7488652705603
s 5.450631575334938 -6.398567501480146 11.849199076815085 -6.398567501480146
S 1200.6856621625582 527.4723710061479 1200.6856621625582 549.7488652705603
z" fill="none" stroke="none" style="animation-play-state:paused" ></path>


<circle cx="0" cy="0" r="6.706429125064368" fill="#ff98c0" opacity="0.9" transform="translate(1199.8570556640625 559.7817993164062)" style="opacity:0.9;animation-play-state:paused" ></circle>
<path id="path3" d="M 88.00902770183149 190.49452303152296
c 0 21.348549922797243 -5.223581364088687 6.132030296973677 -11.355611661062364 6.132030296973677
S 65.29780437970675 211.8430729543202 65.29780437970675 190.49452303152296
s 5.223581364088687 -6.132030296973677 11.355611661062364 -6.132030296973677
S 88.00902770183149 169.1459731087257 88.00902770183149 190.49452303152296
z" fill="none" stroke="none" style="animation-play-state:paused" ></path>


<circle cx="0" cy="0" r="6.059546003557458" fill="#ff98c0" opacity="0.9" transform="translate(87.39788055419922 181.5740509033203)" style="opacity:0.9;animation-play-state:paused" ></circle>
<path id="path4" d="M 818.4331294478066 156.33749605046168
c 0 31.232432341328522 -7.641978126069743 8.97101780016883 -16.612995926238575 8.97101780016883
S 785.2071375953294 187.5699283917902 785.2071375953294 156.33749605046168
s 7.641978126069743 -8.97101780016883 16.612995926238575 -8.97101780016883
S 818.4331294478066 125.10506370913316 818.4331294478066 156.33749605046168
z" fill="none" stroke="none" style="animation-play-state:paused" ></path>


<circle cx="0" cy="0" r="5.299835112547838" fill="#ff98c0" opacity="0.9" transform="translate(793.3729858398438 142.61874389648438)" style="opacity:0.9;animation-play-state:paused" ></circle>
<path id="path5" d="M 296.7779871453681 291.5310550766186
c 0 24.03414567918351 -5.8806952193746875 6.903424822744199 -12.784120042118888 6.903424822744199
S 271.2097470611303 315.5652007558021 271.2097470611303 291.5310550766186
s 5.8806952193746875 -6.903424822744199 12.784120042118888 -6.903424822744199
S 296.7779871453681 267.4969093974351 296.7779871453681 291.5310550766186
z" fill="none" stroke="none" style="animation-play-state:paused" ></path>


<circle cx="0" cy="0" r="6.981899317893563" fill="#ff98c0" opacity="0.9" transform="translate(274.544189453125 304.2142333984375)" style="opacity:0.9;animation-play-state:paused" ></circle>
<path id="path6" d="M 571.88762581535 11.775673712343124
c 0 31.23677348655855 -7.643040321179219 8.972264724862562 -16.615305046041783 8.972264724862562
S 538.6570157232666 43.012447198901675 538.6570157232666 11.775673712343124
s 7.643040321179219 -8.972264724862562 16.615305046041783 -8.972264724862562
S 571.88762581535 -19.461099774215427 571.88762581535 11.775673712343124
z" fill="none" stroke="none" style="animation-play-state:paused" ></path>


<circle cx="0" cy="0" r="6.8816700265007205" fill="#ff98c0" opacity="0.9" transform="translate(546.4365844726562 -2.281032085418701)" style="opacity:0.9;animation-play-state:paused" ></circle>
<path id="path7" d="M 717.9688853840645 565.028352012259
c 0 29.772986207866296 -7.28487960405239 8.551815187365852 -15.836694791418243 8.551815187365852
S 686.295495801228 594.8013382201253 686.295495801228 565.028352012259
s 7.28487960405239 -8.551815187365852 15.836694791418243 -8.551815187365852
S 717.9688853840645 535.2553658043927 717.9688853840645 565.028352012259
z" fill="none" stroke="none" style="animation-play-state:paused" ></path>


<circle cx="0" cy="0" r="4.752690094450905" fill="#ff98c0" opacity="0.9" transform="translate(699.3151245117188 555.7794799804688)" style="opacity:0.9;animation-play-state:paused" ></circle>
<path id="path8" d="M 275.2426948083446 637.9305006674847
c 0 35.46201853894546 -8.676876876550482 10.185898942037525 -18.862775818588005 10.185898942037525
S 237.5171431711686 673.3925192064302 237.5171431711686 637.9305006674847
s 8.676876876550482 -10.185898942037525 18.862775818588005 -10.185898942037525
S 275.2426948083446 602.4684821285392 275.2426948083446 637.9305006674847
z" fill="none" stroke="none" style="animation-play-state:paused" ></path>


<circle cx="0" cy="0" r="6.834859596990793" fill="#ff98c0" opacity="0.9" transform="translate(246.77163696289062 653.5220947265625)" style="opacity:0.9;animation-play-state:paused" ></circle>
<path id="path9" d="M 163.429285899688 355.7204993452385
c 0 31.826858709808032 -7.787422875804093 9.141757288987414 -16.929180164791507 9.141757288987414
S 129.57092557010498 387.5473580550466 129.57092557010498 355.7204993452385
s 7.787422875804093 -9.141757288987414 16.929180164791507 -9.141757288987414
S 163.429285899688 323.8936406354305 163.429285899688 355.7204993452385
z" fill="none" stroke="none" style="animation-play-state:paused" ></path>


<circle cx="0" cy="0" r="6.261367300342608" fill="#ff98c0" opacity="0.9" transform="translate(148.9337615966797 365.3584289550781)" style="opacity:0.9;animation-play-state:paused" ></circle>
<path id="path10" d="M 864.3555512959673 453.93758946152
c 0 19.60479300731746 -4.796917437960654 5.631163948910334 -10.42808138687099 5.631163948910334
S 843.4993885222253 473.5423824688375 843.4993885222253 453.93758946152
s 4.796917437960654 -5.631163948910334 10.42808138687099 -5.631163948910334
S 864.3555512959673 434.33279645420254 864.3555512959673 453.93758946152
z" fill="none" stroke="none" style="animation-play-state:paused" ></path>


<circle cx="0" cy="0" r="7.0067908296620605" fill="#ff98c0" opacity="0.9" transform="translate(863.6744384765625 462.6037902832031)" style="opacity:0.9;animation-play-state:paused" ></circle>
<path id="path11" d="M 95.50957773123896 411.9676230033823
c 0 26.487673444736267 -6.481026481158874 7.608161521360417 -14.08918800251929 7.608161521360417
S 67.33120172620038 438.4552964481186 67.33120172620038 411.9676230033823
s 6.481026481158874 -7.608161521360417 14.08918800251929 -7.608161521360417
S 95.50957773123896 385.479949558646 95.50957773123896 411.9676230033823
z" fill="none" stroke="none" style="animation-play-state:paused" ></path>


<circle cx="0" cy="0" r="6.441457850883197" fill="#ff98c0" opacity="0.9" transform="translate(91.17178344726562 425.62139892578125)" style="opacity:0.9;animation-play-state:paused" ></circle>
<path id="path12" d="M 1322.108445234667 165.21366312537617
c 0 20.42112276085115 -4.996657696804005 5.865641644074267 -10.862299340878272 5.865641644074267
S 1300.3838465529104 185.63478588622732 1300.3838465529104 165.21366312537617
s 4.996657696804005 -5.865641644074267 10.862299340878272 -5.865641644074267
S 1322.108445234667 144.79254036452502 1322.108445234667 165.21366312537617
z" fill="none" stroke="none" style="animation-play-state:paused" ></path>


<circle cx="0" cy="0" r="5.674392600195882" fill="#ff98c0" opacity="0.9" transform="translate(1321.4586181640625 174.01751708984375)" style="opacity:0.9;animation-play-state:paused" ></circle>
<path id="path13" d="M 640.6074928454267 496.2002418916866
c 0 23.169537715252133 -5.669142206923394 6.655079982040506 -12.324222188963901 6.655079982040506
S 615.959048467499 519.3697796069387 615.959048467499 496.2002418916866
s 5.669142206923394 -6.655079982040506 12.324222188963901 -6.655079982040506
S 640.6074928454267 473.0307041764344 640.6074928454267 496.2002418916866
z" fill="none" stroke="none" style="animation-play-state:paused" ></path>


<circle cx="0" cy="0" r="6.536285711107079" fill="#ff98c0" opacity="0.9" transform="translate(640.4208374023438 502.3089294433594)" style="opacity:0.9;animation-play-state:paused" ></circle>
<path id="path14" d="M 45.818463837774814 533.5749814184549
c 0 31.71393936006179 -7.759793673206608 9.109323007677324 -16.86911668088393 9.109323007677324
S 12.08023047600695 565.2889207785166 12.08023047600695 533.5749814184549
s 7.759793673206608 -9.109323007677324 16.86911668088393 -9.109323007677324
S 45.818463837774814 501.8610420583931 45.818463837774814 533.5749814184549
z" fill="none" stroke="none" style="animation-play-state:paused" ></path>


<circle cx="0" cy="0" r="7.12453993168276" fill="#ff98c0" opacity="0.9" transform="translate(12.237412452697754 540.3941650390625)" style="opacity:0.9;animation-play-state:paused" ></circle>
<path id="path15" d="M 339.2607821459149 583.4764096589165
c 0 31.550500862062886 -7.719803402419641 9.062377907188276 -16.782181309607918 9.062377907188276
S 305.6964195266991 615.0269105209794 305.6964195266991 583.4764096589165
s 7.719803402419641 -9.062377907188276 16.782181309607918 -9.062377907188276
S 339.2607821459149 551.9259087968536 339.2607821459149 583.4764096589165
z" fill="none" stroke="none" style="animation-play-state:paused" ></path>


<circle cx="0" cy="0" r="4.211973086743043" fill="#ff98c0" opacity="0.9" transform="translate(339.25604248046875 584.7644653320312)" style="opacity:0.9;animation-play-state:paused" ></circle>
<path id="path16" d="M 867.6838572762533 78.22731161212886
c 0 19.323364425587222 -4.728057253069214 5.5503280796899475 -10.27838533275916 5.5503280796899475
S 847.127086610735 97.55067603771607 847.127086610735 78.22731161212886
s 4.728057253069214 -5.5503280796899475 10.27838533275916 -5.5503280796899475
S 867.6838572762533 58.903947186541636 867.6838572762533 78.22731161212886
z" fill="none" stroke="none" style="animation-play-state:paused" ></path>


<circle cx="0" cy="0" r="6.4246847990185545" fill="#ff98c0" opacity="0.9" transform="translate(856.5048217773438 83.89308166503906)" style="opacity:0.9;animation-play-state:paused" ></circle>
<path id="path17" d="M 514.2199752845773 118.00251206136531
c 0 26.593649055235343 -6.506956683727796 7.638601324376109 -14.145558008103905 7.638601324376109
S 485.9288592683696 144.59616111660065 485.9288592683696 118.00251206136531
s 6.506956683727796 -7.638601324376109 14.145558008103905 -7.638601324376109
S 514.2199752845773 91.40886300612996 514.2199752845773 118.00251206136531
z" fill="none" stroke="none" style="animation-play-state:paused" ></path>


<circle cx="0" cy="0" r="6.390553624958798" fill="#ff98c0" opacity="0.9" transform="translate(486.8177795410156 129.63194274902344)" style="opacity:0.9;animation-play-state:paused" ></circle>
<path id="path18" d="M 214.0545176108985 86.09295069271259
c 0 33.612669145677415 -8.224376493091281 9.654702839715853 -17.879079332807134 9.654702839715853
S 178.29635894528425 119.70561983839 178.29635894528425 86.09295069271259
s 8.224376493091281 -9.654702839715853 17.879079332807134 -9.654702839715853
S 214.0545176108985 52.480281547035176 214.0545176108985 86.09295069271259
z" fill="none" stroke="none" style="animation-play-state:paused" ></path>


<circle cx="0" cy="0" r="5.282960021436044" fill="#ff98c0" opacity="0.9" transform="translate(195.4205322265625 95.79547882080078)" style="opacity:0.9;animation-play-state:paused" ></circle>
<path id="path19" d="M 183.32942627830997 451.89976003646217
c 0 36.28587143392367 -8.878457904045153 10.422537539531266 -19.30099544357642 10.422537539531266
S 144.72743539115712 488.18563147038583 144.72743539115712 451.89976003646217
s 8.878457904045153 -10.422537539531266 19.30099544357642 -10.422537539531266
S 183.32942627830997 415.6138886025385 183.32942627830997 451.89976003646217
z" fill="none" stroke="none" style="animation-play-state:paused" ></path>


<circle cx="0" cy="0" r="7.5338875831375995" fill="#ff98c0" opacity="0.9" transform="translate(183.26841735839844 456.71295166015625)" style="opacity:0.9;animation-play-state:paused" ></circle>
<path id="path20" d="M 1230.6278982496844 484.0317760951468
c 0 24.554612304852217 -6.008043436293628 7.052920555649042 -13.06096399194267 7.052920555649042
S 1204.5059702657993 508.58638839999907 1204.5059702657993 484.0317760951468
s 6.008043436293628 -7.052920555649042 13.06096399194267 -7.052920555649042
S 1230.6278982496844 459.4771637902946 1230.6278982496844 484.0317760951468
z" fill="none" stroke="none" style="animation-play-state:paused" ></path>


<circle cx="0" cy="0" r="7.153271057917873" fill="#ff98c0" opacity="0.9" transform="translate(1213.1552734375 475.100830078125)" style="opacity:0.9;animation-play-state:paused" ></circle>
<path id="path21" d="M 1035.233580004597 648.6584168925294
c 0 25.470229513302165 -6.2320774341058485 7.315916987863388 -13.547994421969236 7.315916987863388
S 1008.1375911606585 674.1286464058315 1008.1375911606585 648.6584168925294
s 6.2320774341058485 -7.315916987863388 13.547994421969236 -7.315916987863388
S 1035.233580004597 623.1881873792273 1035.233580004597 648.6584168925294
z" fill="none" stroke="none" style="animation-play-state:paused" ></path>


<circle cx="0" cy="0" r="6.4933751084957185" fill="#ff98c0" opacity="0.9" transform="translate(1035.2056884765625 651.4345092773438)" style="opacity:0.9;animation-play-state:paused" ></circle>
<path id="path22" d="M 1142.3980803970508 651.3678421346979
c 0 25.192039803926107 -6.164009739258515 7.236011433042605 -13.40002117230112 7.236011433042605
S 1115.5980380524484 676.559881938624 1115.5980380524484 651.3678421346979
s 6.164009739258515 -7.236011433042605 13.40002117230112 -7.236011433042605
S 1142.3980803970508 626.1758023307717 1142.3980803970508 651.3678421346979
z" fill="none" stroke="none" style="animation-play-state:paused" ></path>


<circle cx="0" cy="0" r="5.4606610156040585" fill="#ff98c0" opacity="0.9" transform="translate(1116.0074462890625 660.075927734375)" style="opacity:0.9;animation-play-state:paused" ></circle>
<path id="path23" d="M 92.6901725274389 439.07291877447716
c 0 34.37879368064273 -8.411832496327476 9.874759886993123 -18.2865923833206 9.874759886993123
S 56.11698776079771 473.4517124551199 56.11698776079771 439.07291877447716
s 8.411832496327476 -9.874759886993123 18.2865923833206 -9.874759886993123
S 92.6901725274389 404.69412509383443 92.6901725274389 439.07291877447716
z" fill="none" stroke="none" style="animation-play-state:paused" ></path>


<circle cx="0" cy="0" r="4.318300254865773" fill="#ff98c0" opacity="0.9" transform="translate(56.27429962158203 446.2171325683594)" style="opacity:0.9;animation-play-state:paused" ></circle>
<path id="path24" d="M 1192.167087577048 456.04402973225547
c 0 36.47690571207925 -8.925200333806623 10.477409087512125 -19.402609421318747 10.477409087512125
S 1153.3618687344103 492.5209354443347 1153.3618687344103 456.04402973225547
s 8.925200333806623 -10.477409087512125 19.402609421318747 -10.477409087512125
S 1192.167087577048 419.5671240201762 1192.167087577048 456.04402973225547
z" fill="none" stroke="none" style="animation-play-state:paused" ></path>


<circle cx="0" cy="0" r="5.7371547681433475" fill="#ff98c0" opacity="0.9" transform="translate(1171.037841796875 445.34197998046875)" style="opacity:0.9;animation-play-state:paused" ></circle>
<path id="path25" d="M 1369.6740257551944 172.81625683594046
c 0 24.35483887382761 -5.959162703170585 6.995538825461122 -12.954701528631707 6.995538825461122
S 1343.7646226979311 197.17109570976808 1343.7646226979311 172.81625683594046
s 5.959162703170585 -6.995538825461122 12.954701528631707 -6.995538825461122
S 1369.6740257551944 148.46141796211285 1369.6740257551944 172.81625683594046
z" fill="none" stroke="none" style="animation-play-state:paused" ></path>


<circle cx="0" cy="0" r="4.0901664773895305" fill="#ff98c0" opacity="0.9" transform="translate(1344.8028564453125 161.4543914794922)" style="opacity:0.9;animation-play-state:paused" ></circle>
<path id="path26" d="M 538.7322229098863 268.7736600004821
c 0 30.34215327427319 -7.424143886258333 8.715299344738044 -16.139443230996378 8.715299344738044
S 506.4533364478936 299.1158132747553 506.4533364478936 268.7736600004821
s 7.424143886258333 -8.715299344738044 16.139443230996378 -8.715299344738044
S 538.7322229098863 238.4315067262089 538.7322229098863 268.7736600004821
z" fill="none" stroke="none" style="animation-play-state:paused" ></path>


<circle cx="0" cy="0" r="5.6452559173653665" fill="#ff98c0" opacity="0.9" transform="translate(506.9100646972656 258.5704345703125)" style="opacity:0.9;animation-play-state:paused" ></circle></g></svg>