<?xml version="1.0" encoding="utf-8"?><svg xmlns="http://www.w3.org/2000/svg" xmlns:xlink="http://www.w3.org/1999/xlink" width="1366" height="629" preserveAspectRatio="xMidYMid" viewBox="0 0 1366 629" style="z-index:1;margin-right:-2px;display:block;background-repeat-y:initial;background-repeat-x:initial;background-color:rgb(255, 255, 255);animation-play-state:paused" ><g transform="translate(683,314.5) scale(1,1) translate(-683,-314.5)" style="transform:matrix(1, 0, 0, 1, 0, 0);animation-play-state:paused" ><path id="path0" d="M 1354.0644767008769 69.56855356534018
c 0 27.504643294584692 -6.729859529526041 7.900269882487092 -14.630129412013133 7.900269882487092
S 1324.8042178768508 97.07319685992488 1324.8042178768508 69.56855356534018
s 6.729859529526041 -7.900269882487092 14.630129412013133 -7.900269882487092
S 1354.0644767008769 42.063910270755485 1354.0644767008769 69.56855356534018
z" fill="none" stroke="none" style="animation-play-state:paused" ></path>


<circle cx="0" cy="0" r="5.473971121440182" fill="#9df871" opacity="0.9" transform="translate(1350.6898193359375 84.20852661132812)" style="opacity:0.9;animation-play-state:paused" ></circle>
<path id="path1" d="M 96.04832300706519 263.0730413305789
c 0 36.64135718381157 -8.965438459868787 10.524645148541621 -19.49008360841041 10.524645148541621
S 57.06815579024438 299.7143985143905 57.06815579024438 263.0730413305789
s 8.965438459868787 -10.524645148541621 19.49008360841041 -10.524645148541621
S 96.04832300706519 226.43168414676734 96.04832300706519 263.0730413305789
z" fill="none" stroke="none" style="animation-play-state:paused" ></path>


<circle cx="0" cy="0" r="7.610796373171015" fill="#ff708e" opacity="0.9" transform="translate(96.04827117919922 263.10186767578125)" style="opacity:0.9;animation-play-state:paused" ></circle>
<path id="path2" d="M 1107.9712641301628 322.80437306020673
c 0 29.2166837128801 -7.148763036130236 8.39202617284854 -15.540789208978776 8.39202617284854
S 1076.8896857122052 352.02105677308685 1076.8896857122052 322.80437306020673
s 7.148763036130236 -8.39202617284854 15.540789208978776 -8.39202617284854
S 1107.9712641301628 293.5876893473266 1107.9712641301628 322.80437306020673
z" fill="none" stroke="none" style="animation-play-state:paused" ></path>


<circle cx="0" cy="0" r="6.546434168326366" fill="#51cacc" opacity="0.9" transform="translate(1091.2025146484375 331.3392333984375)" style="opacity:0.9;animation-play-state:paused" ></circle>
<path id="path3" d="M 912.5257371666586 9.566494743611882
c 0 20.544422477033446 -5.026826776295417 5.901057519998969 -10.927884296294385 5.901057519998969
S 890.6699685740699 30.110917220645327 890.6699685740699 9.566494743611882
s 5.026826776295417 -5.901057519998969 10.927884296294385 -5.901057519998969
S 912.5257371666586 -10.977927733421565 912.5257371666586 9.566494743611882
z" fill="none" stroke="none" style="animation-play-state:paused" ></path>


<circle cx="0" cy="0" r="7.377365240795451" fill="#9df871" opacity="0.9" transform="translate(897.11181640625 1.460799217224121)" style="opacity:0.9;animation-play-state:paused" ></circle>
<path id="path4" d="M 931.9309410931797 89.23878617620197
c 0 31.327242043380377 -7.6651762446569 8.998250374162449 -16.663426618819347 8.998250374162449
S 898.604087855541 120.56602821958235 898.604087855541 89.23878617620197
s 7.6651762446569 -8.998250374162449 16.663426618819347 -8.998250374162449
S 931.9309410931797 57.91154413282159 931.9309410931797 89.23878617620197
z" fill="none" stroke="none" style="animation-play-state:paused" ></path>


<circle cx="0" cy="0" r="4.45628616084661" fill="#e0ff77" opacity="0.9" transform="translate(911.3162231445312 78.98175048828125)" style="opacity:0.9;animation-play-state:paused" ></circle>
<path id="path5" d="M 598.6102990081899 279.1338639795719
c 0 29.817443356475327 -7.295757417009919 8.564584793881211 -15.86034221089113 8.564584793881211
S 566.8896145864078 308.95130733604725 566.8896145864078 279.1338639795719
s 7.295757417009919 -8.564584793881211 15.86034221089113 -8.564584793881211
S 598.6102990081899 249.31642062309658 598.6102990081899 279.1338639795719
z" fill="none" stroke="none" style="animation-play-state:paused" ></path>


<circle cx="0" cy="0" r="5.726869931692437" fill="#9df871" opacity="0.9" transform="translate(573.8424682617188 265.31109619140625)" style="opacity:0.9;animation-play-state:paused" ></circle>
<path id="path6" d="M 910.3490712899176 263.97222579550896
c 0 21.570349117613663 -5.27785137984164 6.195738576335839 -11.473589956177479 6.195738576335839
S 887.4018913775625 285.5425749131226 887.4018913775625 263.97222579550896
s 5.27785137984164 -6.195738576335839 11.473589956177479 -6.195738576335839
S 910.3490712899176 242.4018766778953 910.3490712899176 263.97222579550896
z" fill="none" stroke="none" style="animation-play-state:paused" ></path>


<circle cx="0" cy="0" r="6.856286657806704" fill="#e0ff77" opacity="0.9" transform="translate(887.4085693359375 265.2311096191406)" style="opacity:0.9;animation-play-state:paused" ></circle>
<path id="path7" d="M 1374.216248245837 203.78781929043737
c 0 34.38703427255103 -8.413848811368867 9.877126865519976 -18.29097567688884 9.877126865519976
S 1337.6342968920594 238.1748535629884 1337.6342968920594 203.78781929043737
s 8.413848811368867 -9.877126865519976 18.29097567688884 -9.877126865519976
S 1374.216248245837 169.40078501788634 1374.216248245837 203.78781929043737
z" fill="none" stroke="none" style="animation-play-state:paused" ></path>


<circle cx="0" cy="0" r="6.427192387154972" fill="#9df871" opacity="0.9" transform="translate(1374.0313720703125 196.12567138671875)" style="opacity:0.9;animation-play-state:paused" ></circle>
<path id="path8" d="M 538.0864600463884 191.70107132810537
c 0 20.22437570274941 -4.948517459183366 5.8091291912152565 -10.757646650398623 5.8091291912152565
S 516.5711667455911 211.92544703085477 516.5711667455911 191.70107132810537
s 4.948517459183366 -5.8091291912152565 10.757646650398623 -5.8091291912152565
S 538.0864600463884 171.47669562535597 538.0864600463884 191.70107132810537
z" fill="none" stroke="none" style="animation-play-state:paused" ></path>


<circle cx="0" cy="0" r="7.346591639695198" fill="#51cacc" opacity="0.9" transform="translate(538.0859375 191.96768188476562)" style="opacity:0.9;animation-play-state:paused" ></circle>
<path id="path9" d="M 916.4525112134507 314.5192927489675
c 0 33.164209469899696 -8.11464699795418 9.525889954120126 -17.640536952074306 9.525889954120126
S 881.1714373093022 347.68350221886715 881.1714373093022 314.5192927489675
s 8.11464699795418 -9.525889954120126 17.640536952074306 -9.525889954120126
S 916.4525112134507 281.3550832790678 916.4525112134507 314.5192927489675
z" fill="none" stroke="none" style="animation-play-state:paused" ></path>


<circle cx="0" cy="0" r="7.71871471115783" fill="#51cacc" opacity="0.9" transform="translate(909.824462890625 330.7920837402344)" style="opacity:0.9;animation-play-state:paused" ></circle>
<path id="path10" d="M 265.5887131887039 215.13021843462482
c 0 24.648662615342236 -6.031055746307142 7.0799350065344715 -13.110990752841614 7.0799350065344715
S 239.36673168302067 239.77888104996705 239.36673168302067 215.13021843462482
s 6.031055746307142 -7.0799350065344715 13.110990752841614 -7.0799350065344715
S 265.5887131887039 190.4815558192826 265.5887131887039 215.13021843462482
z" fill="none" stroke="none" style="animation-play-state:paused" ></path>


<circle cx="0" cy="0" r="5.865984290751658" fill="#9df871" opacity="0.9" transform="translate(254.60592651367188 222.6950225830078)" style="opacity:0.9;animation-play-state:paused" ></circle>
<path id="path11" d="M 404.3017524677954 552.0175292691771
c 0 33.73844174730735 -8.255150640298606 9.690829012524452 -17.94597965282306 9.690829012524452
S 368.4097931621493 585.7559710164844 368.4097931621493 552.0175292691771
s 8.255150640298606 -9.690829012524452 17.94597965282306 -9.690829012524452
S 404.3017524677954 518.2790875218698 404.3017524677954 552.0175292691771
z" fill="none" stroke="none" style="animation-play-state:paused" ></path>


<circle cx="0" cy="0" r="6.910367820395964" fill="#ff708e" opacity="0.9" transform="translate(403.84222412109375 541.0851440429688)" style="opacity:0.9;animation-play-state:paused" ></circle>
<path id="path12" d="M 628.0755791233305 69.0840544257648
c 0 26.543911587860737 -6.494786877880818 7.624315030555744 -14.119101908436562 7.624315030555744
S 599.8373753064575 95.62796601362554 599.8373753064575 69.0840544257648
s 6.494786877880818 -7.624315030555744 14.119101908436562 -7.624315030555744
S 628.0755791233305 42.54014283790407 628.0755791233305 69.0840544257648
z" fill="none" stroke="none" style="animation-play-state:paused" ></path>


<circle cx="0" cy="0" r="5.803864610917122" fill="#ff708e" opacity="0.9" transform="translate(599.90087890625 64.95128631591797)" style="opacity:0.9;animation-play-state:paused" ></circle>
<path id="path13" d="M 204.3051225360638 243.60706660661285
c 0 19.886263038029757 -4.865787764624302 5.712011723689398 -10.5777994883137 5.712011723689398
S 183.1495235594364 263.4933296446426 183.1495235594364 243.60706660661285
s 4.865787764624302 -5.712011723689398 10.5777994883137 -5.712011723689398
S 204.3051225360638 223.72080356858308 204.3051225360638 243.60706660661285
z" fill="none" stroke="none" style="animation-play-state:paused" ></path>


<circle cx="0" cy="0" r="4.013298315471242" fill="#51cacc" opacity="0.9" transform="translate(183.18157958984375 246.19737243652344)" style="opacity:0.9;animation-play-state:paused" ></circle>
<path id="path14" d="M 412.6024034217018 166.9448711125835
c 0 20.283558457774888 -4.962998346051301 5.826128493190659 -10.78912683924196 5.826128493190659
S 391.02414974321783 187.2284295703584 391.02414974321783 166.9448711125835
s 4.962998346051301 -5.826128493190659 10.78912683924196 -5.826128493190659
S 412.6024034217018 146.66131265480863 412.6024034217018 166.9448711125835
z" fill="none" stroke="none" style="animation-play-state:paused" ></path>


<circle cx="0" cy="0" r="4.189627713248374" fill="#de9dd6" opacity="0.9" transform="translate(400.8622741699219 172.89358520507812)" style="opacity:0.9;animation-play-state:paused" ></circle>
<path id="path15" d="M 1242.2258779376407 479.2939128877126
c 0 30.265687192943595 -7.4054341004010915 8.693335683079544 -16.098769783480634 8.693335683079544
S 1210.0283383706796 509.5596000806562 1210.0283383706796 479.2939128877126
s 7.4054341004010915 -8.693335683079544 16.098769783480634 -8.693335683079544
S 1242.2258779376407 449.02822569476905 1242.2258779376407 479.2939128877126
z" fill="none" stroke="none" style="animation-play-state:paused" ></path>


<circle cx="0" cy="0" r="6.059981978233517" fill="#51cacc" opacity="0.9" transform="translate(1210.0400390625 481.286376953125)" style="opacity:0.9;animation-play-state:paused" ></circle>
<path id="path16" d="M 509.3281220449314 540.3516294019923
c 0 32.18067042445793 -7.873993827260981 9.24338405808898 -17.11737788534996 9.24338405808898
S 475.0933662742314 572.5322998264503 475.0933662742314 540.3516294019923
s 7.873993827260981 -9.24338405808898 17.11737788534996 -9.24338405808898
S 509.3281220449314 508.1709589775344 509.3281220449314 540.3516294019923
z" fill="none" stroke="none" style="animation-play-state:paused" ></path>


<circle cx="0" cy="0" r="5.679935905623447" fill="#9df871" opacity="0.9" transform="translate(491.59149169921875 531.0744018554688)" style="opacity:0.9;animation-play-state:paused" ></circle>
<path id="path17" d="M 446.30032157302526 401.0485539087053
c 0 26.10717588959466 -6.387926015539119 7.4988696704154885 -13.886795685954606 7.4988696704154885
S 418.52673020111604 427.15572979829994 418.52673020111604 401.0485539087053
s 6.387926015539119 -7.4988696704154885 13.886795685954606 -7.4988696704154885
S 446.30032157302526 374.94137801911063 446.30032157302526 401.0485539087053
z" fill="none" stroke="none" style="animation-play-state:paused" ></path>


<circle cx="0" cy="0" r="6.1959178389202" fill="#e0ff77" opacity="0.9" transform="translate(445.5462951660156 411.9862365722656)" style="opacity:0.9;animation-play-state:paused" ></circle>
<path id="path18" d="M 860.5243050846374 609.8986903105625
c 0 22.926686757527662 -5.609721227905704 6.585324919715392 -12.195046147621095 6.585324919715392
S 836.1342127893953 632.8253770680902 836.1342127893953 609.8986903105625
s 5.609721227905704 -6.585324919715392 12.195046147621095 -6.585324919715392
S 860.5243050846374 586.9720035530348 860.5243050846374 609.8986903105625
z" fill="none" stroke="none" style="animation-play-state:paused" ></path>


<circle cx="0" cy="0" r="7.788891329557875" fill="#e0ff77" opacity="0.9" transform="translate(836.8851318359375 599.9307861328125)" style="opacity:0.9;animation-play-state:paused" ></circle>
<path id="path19" d="M 1070.9238206397736 409.2244301016964
c 0 19.32039593188164 -4.727330919502954 5.549475427242599 -10.276806346745552 5.549475427242599
S 1050.3702079462823 428.54482603357803 1050.3702079462823 409.2244301016964
s 4.727330919502954 -5.549475427242599 10.276806346745552 -5.549475427242599
S 1070.9238206397736 389.90403416981474 1070.9238206397736 409.2244301016964
z" fill="none" stroke="none" style="animation-play-state:paused" ></path>


<circle cx="0" cy="0" r="6.941061997360234" fill="#9df871" opacity="0.9" transform="translate(1056.1749267578125 401.3885803222656)" style="opacity:0.9;animation-play-state:paused" ></circle>
<path id="path20" d="M 923.7185203506151 104.67550368487326
c 0 33.006567677420534 -8.076075070007152 9.480609864791006 -17.556684934798156 9.480609864791006
S 888.6051504810189 137.6820713622938 888.6051504810189 104.67550368487326
s 8.076075070007152 -9.480609864791006 17.556684934798156 -9.480609864791006
S 923.7185203506151 71.66893600745273 923.7185203506151 104.67550368487326
z" fill="none" stroke="none" style="animation-play-state:paused" ></path>


<circle cx="0" cy="0" r="6.428858200136284" fill="#e0ff77" opacity="0.9" transform="translate(888.7490844726562 97.95286560058594)" style="opacity:0.9;animation-play-state:paused" ></circle>
<path id="path21" d="M 599.1999770323438 182.63982787338315
c 0 35.27187929602186 -8.630353444771306 10.131284478644577 -18.761637923415883 10.131284478644577
S 561.6767011855121 217.91170716940502 561.6767011855121 182.63982787338315
s 8.630353444771306 -10.131284478644577 18.761637923415883 -10.131284478644577
S 599.1999770323438 147.3679485773613 599.1999770323438 182.63982787338315
z" fill="none" stroke="none" style="animation-play-state:paused" ></path>


<circle cx="0" cy="0" r="5.397243530159339" fill="#e0ff77" opacity="0.9" transform="translate(598.5562133789062 169.92919921875)" style="opacity:0.9;animation-play-state:paused" ></circle>
<path id="path22" d="M 456.7663525477624 39.394332414781516
c 0 27.62541757982129 -6.759410684424357 7.934960368672072 -14.694371053096429 7.934960368672072
S 427.3776104415696 67.0197499946028 427.3776104415696 39.394332414781516
s 6.759410684424357 -7.934960368672072 14.694371053096429 -7.934960368672072
S 456.7663525477624 11.768914834960228 456.7663525477624 39.394332414781516
z" fill="none" stroke="none" style="animation-play-state:paused" ></path>


<circle cx="0" cy="0" r="5.998309635589315" fill="#9df871" opacity="0.9" transform="translate(429.1035461425781 25.423402786254883)" style="opacity:0.9;animation-play-state:paused" ></circle>
<path id="path23" d="M 1091.2308672522934 199.3020555407177
c 0 18.941466389008323 -4.634614116459483 5.440633962800264 -10.075248079259747 5.440633962800264
S 1071.0803710937737 218.24352192972603 1071.0803710937737 199.3020555407177
s 4.634614116459483 -5.440633962800264 10.075248079259747 -5.440633962800264
S 1091.2308672522934 180.36058915170938 1091.2308672522934 199.3020555407177
z" fill="none" stroke="none" style="animation-play-state:paused" ></path>


<circle cx="0" cy="0" r="6.079906822558815" fill="#e0ff77" opacity="0.9" transform="translate(1088.301513671875 209.1616973876953)" style="opacity:0.9;animation-play-state:paused" ></circle>
<path id="path24" d="M 932.6552829388718 504.5311087816856
c 0 35.49283240482221 -8.684416439477774 10.194749733299997 -18.879166172777772 10.194749733299997
S 894.8969505933162 540.0239411865078 894.8969505933162 504.5311087816856
s 8.684416439477774 -10.194749733299997 18.879166172777772 -10.194749733299997
S 932.6552829388718 469.0382763768634 932.6552829388718 504.5311087816856
z" fill="none" stroke="none" style="animation-play-state:paused" ></path>


<circle cx="0" cy="0" r="6.998820876855823" fill="#de9dd6" opacity="0.9" transform="translate(926.340087890625 522.5091552734375)" style="opacity:0.9;animation-play-state:paused" ></circle>
<path id="path25" d="M 424.6732549861925 606.7595610939799
c 0 35.2133595230746 -8.616034776922508 10.11447560769164 -18.73051038461415 10.11447560769164
S 387.2122342169642 641.9729206170545 387.2122342169642 606.7595610939799
s 8.616034776922508 -10.11447560769164 18.73051038461415 -10.11447560769164
S 424.6732549861925 571.5462015709053 424.6732549861925 606.7595610939799
z" fill="none" stroke="none" style="animation-play-state:paused" ></path>


<circle cx="0" cy="0" r="6.162023001543637" fill="#9df871" opacity="0.9" transform="translate(387.489501953125 615.9556884765625)" style="opacity:0.9;animation-play-state:paused" ></circle>
<path id="path26" d="M 470.117961924856 587.3278151674848
c 0 21.04994392398545 -5.150518194166652 6.0462604888043305 -11.196778682970983 6.0462604888043305
S 447.724404558914 608.3777590914702 447.724404558914 587.3278151674848
s 5.150518194166652 -6.0462604888043305 11.196778682970983 -6.0462604888043305
S 470.117961924856 566.2778712434994 470.117961924856 587.3278151674848
z" fill="none" stroke="none" style="animation-play-state:paused" ></path>


<circle cx="0" cy="0" r="5.9186162471312365" fill="#de9dd6" opacity="0.9" transform="translate(469.6803894042969 595.26171875)" style="opacity:0.9;animation-play-state:paused" ></circle>
<path id="path27" d="M 1056.0129211134906 31.288678728020944
c 0 33.60605975229003 -8.22275930109224 9.652804396934371 -17.87556369802661 9.652804396934371
S 1020.2617937174375 64.89473848031098 1020.2617937174375 31.288678728020944
s 8.22275930109224 -9.652804396934371 17.87556369802661 -9.652804396934371
S 1056.0129211134906 -2.3173810242690855 1056.0129211134906 31.288678728020944
z" fill="none" stroke="none" style="animation-play-state:paused" ></path>


<circle cx="0" cy="0" r="4.408016066448322" fill="#de9dd6" opacity="0.9" transform="translate(1045.658935546875 17.87613868713379)" style="opacity:0.9;animation-play-state:paused" ></circle>
<path id="path28" d="M 1156.8685524474772 56.72463666868049
c 0 35.808063821871364 -8.761547530883417 10.285294927558796 -19.046842458442214 10.285294927558796
S 1118.774867530593 92.53270049055186 1118.774867530593 56.72463666868049
s 8.761547530883417 -10.285294927558796 19.046842458442214 -10.285294927558796
S 1156.8685524474772 20.916572846809125 1156.8685524474772 56.72463666868049
z" fill="none" stroke="none" style="animation-play-state:paused" ></path>


<circle cx="0" cy="0" r="4.264606695021597" fill="#51cacc" opacity="0.9" transform="translate(1126.002197265625 74.24011993408203)" style="opacity:0.9;animation-play-state:paused" ></circle>
<path id="path29" d="M 1038.9675901358441 70.83472811014391
c 0 34.78189478788246 -8.510463618311665 9.99054424758326 -18.501007865894927 9.99054424758326
S 1001.9655744040542 105.61662289802638 1001.9655744040542 70.83472811014391
s 8.510463618311665 -9.99054424758326 18.501007865894927 -9.99054424758326
S 1038.9675901358441 36.052833322261456 1038.9675901358441 70.83472811014391
z" fill="none" stroke="none" style="animation-play-state:paused" ></path>


<circle cx="0" cy="0" r="6.048023857206913" fill="#ff708e" opacity="0.9" transform="translate(1002.053466796875 76.38726806640625)" style="opacity:0.9;animation-play-state:paused" ></circle>
<path id="path30" d="M 986.4592164910291 610.3513917859767
c 0 27.968281838204376 -6.8433030029649 8.033442655654449 -14.876745658619349 8.033442655654449
S 956.7057251737904 638.3196736241811 956.7057251737904 610.3513917859767
s 6.8433030029649 -8.033442655654449 14.876745658619349 -8.033442655654449
S 986.4592164910291 582.3831099477724 986.4592164910291 610.3513917859767
z" fill="none" stroke="none" style="animation-play-state:paused" ></path>


<circle cx="0" cy="0" r="6.335090460915378" fill="#e0ff77" opacity="0.9" transform="translate(974.5711669921875 601.4937133789062)" style="opacity:0.9;animation-play-state:paused" ></circle>
<path id="path31" d="M 202.57430557556054 603.4911966899627
c 0 23.021043793648595 -5.6328085878076335 6.612427472643745 -12.24523606045138 6.612427472643745
S 178.08383345465776 626.5122404836113 178.08383345465776 603.4911966899627
s 5.6328085878076335 -6.612427472643745 12.24523606045138 -6.612427472643745
S 202.57430557556054 580.4701528963142 202.57430557556054 603.4911966899627
z" fill="none" stroke="none" style="animation-play-state:paused" ></path>


<circle cx="0" cy="0" r="4.6244502719452445" fill="#9df871" opacity="0.9" transform="translate(178.14617919921875 599.6964111328125)" style="opacity:0.9;animation-play-state:paused" ></circle>
<path id="path32" d="M 119.20592664558632 76.62233914509987
c 0 29.533293389825953 -7.226231361340393 8.482967250269157 -15.70919861160955 8.482967250269157
S 87.78752942236721 106.15563253492583 87.78752942236721 76.62233914509987
s 7.226231361340393 -8.482967250269157 15.70919861160955 -8.482967250269157
S 119.20592664558632 47.089045755273915 119.20592664558632 76.62233914509987
z" fill="none" stroke="none" style="animation-play-state:paused" ></path>


<circle cx="0" cy="0" r="6.304420289040082" fill="#9df871" opacity="0.9" transform="translate(106.46511840820312 85.88053894042969)" style="opacity:0.9;animation-play-state:paused" ></circle>
<path id="path33" d="M 738.2748334136984 469.6220410271757
c 0 26.84833069284623 -6.569272403568757 7.711754560711151 -14.281026964279908 7.711754560711151
S 709.7127794851385 496.47037172002194 709.7127794851385 469.6220410271757
s 6.569272403568757 -7.711754560711151 14.281026964279908 -7.711754560711151
S 738.2748334136984 442.7737103343295 738.2748334136984 469.6220410271757
z" fill="none" stroke="none" style="animation-play-state:paused" ></path>


<circle cx="0" cy="0" r="5.08495025147749" fill="#51cacc" opacity="0.9" transform="translate(738.224365234375 465.8795471191406)" style="opacity:0.9;animation-play-state:paused" ></circle>
<path id="path34" d="M 380.7784623018302 303.09739017192646
c 0 24.105009662309563 -5.898034279075743 6.923779371088917 -12.82181365016466 6.923779371088917
S 355.1348350015009 327.202399834236 355.1348350015009 303.09739017192646
s 5.898034279075743 -6.923779371088917 12.82181365016466 -6.923779371088917
S 380.7784623018302 278.9923805096169 380.7784623018302 303.09739017192646
z" fill="none" stroke="none" style="animation-play-state:paused" ></path>


<circle cx="0" cy="0" r="5.894760718256889" fill="#ff708e" opacity="0.9" transform="translate(355.36083984375 309.85406494140625)" style="opacity:0.9;animation-play-state:paused" ></circle>
<path id="path35" d="M 423.20082786672015 451.2111403351937
c 0 25.083260094037165 -6.137393427264412 7.2047661972234405 -13.342159624487852 7.2047661972234405
S 396.5165086177444 476.29440042923085 396.5165086177444 451.2111403351937
s 6.137393427264412 -7.2047661972234405 13.342159624487852 -7.2047661972234405
S 423.20082786672015 426.12788024115656 423.20082786672015 451.2111403351937
z" fill="none" stroke="none" style="animation-play-state:paused" ></path>


<circle cx="0" cy="0" r="7.6446301291195695" fill="#9df871" opacity="0.9" transform="translate(406.2586975097656 442.7273254394531)" style="opacity:0.9;animation-play-state:paused" ></circle>
<path id="path36" d="M 462.7684242503691 565.457073029493
c 0 31.566664609253255 -7.723758361838562 9.067020685636573 -16.790779047475134 9.067020685636573
S 429.1868661554188 597.0237376387463 429.1868661554188 565.457073029493
s 7.723758361838562 -9.067020685636573 16.790779047475134 -9.067020685636573
S 462.7684242503691 533.8904084202397 462.7684242503691 565.457073029493
z" fill="none" stroke="none" style="animation-play-state:paused" ></path>


<circle cx="0" cy="0" r="4.702564791708762" fill="#de9dd6" opacity="0.9" transform="translate(440.28826904296875 576.9517211914062)" style="opacity:0.9;animation-play-state:paused" ></circle>
<path id="path37" d="M 265.9901569763362 429.4908824858407
c 0 27.943609369495817 -6.837266122323444 8.026355882727522 -14.863622005050967 8.026355882727522
S 236.2629129662343 457.43449185533655 236.2629129662343 429.4908824858407
s 6.837266122323444 -8.026355882727522 14.863622005050967 -8.026355882727522
S 265.9901569763362 401.54727311634485 265.9901569763362 429.4908824858407
z" fill="none" stroke="none" style="animation-play-state:paused" ></path>


<circle cx="0" cy="0" r="5.7569019267495944" fill="#51cacc" opacity="0.9" transform="translate(246.65774536132812 419.7295227050781)" style="opacity:0.9;animation-play-state:paused" ></circle>
<path id="path38" d="M 778.2289170133538 264.70621893619125
c 0 27.920729788799175 -6.831667927046606 8.019784088272104 -14.85145201531871 8.019784088272104
S 748.5260129827163 292.6269487249904 748.5260129827163 264.70621893619125
s 6.831667927046606 -8.019784088272104 14.85145201531871 -8.019784088272104
S 778.2289170133538 236.78548914739207 778.2289170133538 264.70621893619125
z" fill="none" stroke="none" style="animation-play-state:paused" ></path>


<circle cx="0" cy="0" r="6.344718923876337" fill="#de9dd6" opacity="0.9" transform="translate(756.6055908203125 276.29443359375)" style="opacity:0.9;animation-play-state:paused" ></circle>
<path id="path39" d="M 1242.4821202850826 568.7361294903178
c 0 24.69953506810139 -6.0435032613439565 7.09454730679508 -13.138050568139036 7.09454730679508
S 1216.2060191488044 593.4356645584191 1216.2060191488044 568.7361294903178
s 6.0435032613439565 -7.09454730679508 13.138050568139036 -7.09454730679508
S 1242.4821202850826 544.0365944222165 1242.4821202850826 568.7361294903178
z" fill="none" stroke="none" style="animation-play-state:paused" ></path>


<circle cx="0" cy="0" r="4.870415138717999" fill="#de9dd6" opacity="0.9" transform="translate(1223.2691650390625 579.0602416992188)" style="opacity:0.9;animation-play-state:paused" ></circle>
<path id="path40" d="M 530.8632078917785 156.65719233179044
c 0 25.618005924274705 -6.268235492109768 7.358363403781032 -13.626598895890801 7.358363403781032
S 503.61001009999694 182.27519825606515 503.61001009999694 156.65719233179044
s 6.268235492109768 -7.358363403781032 13.626598895890801 -7.358363403781032
S 530.8632078917785 131.03918640751573 530.8632078917785 156.65719233179044
z" fill="none" stroke="none" style="animation-play-state:paused" ></path>


<circle cx="0" cy="0" r="6.733844943101166" fill="#e0ff77" opacity="0.9" transform="translate(504.082763671875 165.9248809814453)" style="opacity:0.9;animation-play-state:paused" ></circle>
<path id="path41" d="M 1153.463944445837 602.7683091302786
c 0 24.116060578474503 -5.9007382266480155 6.9269535704128895 -12.827691797060904 6.9269535704128895
S 1127.8085608517151 626.8843697087531 1127.8085608517151 602.7683091302786
s 5.9007382266480155 -6.9269535704128895 12.827691797060904 -6.9269535704128895
S 1153.463944445837 578.6522485518041 1153.463944445837 602.7683091302786
z" fill="none" stroke="none" style="animation-play-state:paused" ></path>


<circle cx="0" cy="0" r="6.614831648104555" fill="#de9dd6" opacity="0.9" transform="translate(1141.234375 609.737060546875)" style="opacity:0.9;animation-play-state:paused" ></circle>
<path id="path42" d="M 144.03719196108494 29.397021697372146
c 0 25.30179622487129 -6.190865033745101 7.267537213526859 -13.45840224727196 7.267537213526859
S 117.12038746654103 54.698817922243435 117.12038746654103 29.397021697372146
s 6.190865033745101 -7.267537213526859 13.45840224727196 -7.267537213526859
S 144.03719196108494 4.095225472500857 144.03719196108494 29.397021697372146
z" fill="none" stroke="none" style="animation-play-state:paused" ></path>


<circle cx="0" cy="0" r="6.834885728544134" fill="#51cacc" opacity="0.9" transform="translate(124.41938781738281 39.917659759521484)" style="opacity:0.9;animation-play-state:paused" ></circle>
<path id="path43" d="M 878.8407683439178 352.5099835873463
c 0 22.63440286199597 -5.538204955594758 6.5013710348286295 -12.039575990423387 6.5013710348286295
S 854.7616163630711 375.1443864493423 854.7616163630711 352.5099835873463
s 5.538204955594758 -6.5013710348286295 12.039575990423387 -6.5013710348286295
S 878.8407683439178 329.87558072535035 878.8407683439178 352.5099835873463
z" fill="none" stroke="none" style="animation-play-state:paused" ></path>


<circle cx="0" cy="0" r="5.685780123571397" fill="#51cacc" opacity="0.9" transform="translate(866.3394775390625 359.0379943847656)" style="opacity:0.9;animation-play-state:paused" ></circle>
<path id="path44" d="M 510.1229759030626 341.0536874340526
c 0 21.026398703734962 -5.144757129637277 6.039497500008978 -11.184254629646254 6.039497500008978
S 487.75446664377006 362.0800861377876 487.75446664377006 341.0536874340526
s 5.144757129637277 -6.039497500008978 11.184254629646254 -6.039497500008978
S 510.1229759030626 320.02728873031765 510.1229759030626 341.0536874340526
z" fill="none" stroke="none" style="animation-play-state:paused" ></path>


<circle cx="0" cy="0" r="7.216737665599911" fill="#e0ff77" opacity="0.9" transform="translate(498.9187927246094 335.0140075683594)" style="opacity:0.9;animation-play-state:paused" ></circle>
<path id="path45" d="M 44.501262029803215 508.59954179751963
c 0 33.91351629721543 -8.297988030169732 9.741116383242732 -18.039104413412463 9.741116383242732
S 8.423053202978288 542.513058094735 8.423053202978288 508.59954179751963
s 8.297988030169732 -9.741116383242732 18.039104413412463 -9.741116383242732
S 44.501262029803215 474.6860255003042 44.501262029803215 508.59954179751963
z" fill="none" stroke="none" style="animation-play-state:paused" ></path>


<circle cx="0" cy="0" r="5.058548073220837" fill="#51cacc" opacity="0.9" transform="translate(15.3936128616333 525.0904541015625)" style="opacity:0.9;animation-play-state:paused" ></circle>
<path id="path46" d="M 1179.7743270918845 575.5474276562663
c 0 37.395367844254224 -9.149930429977097 10.741222678668766 -19.891153108645863 10.741222678668766
S 1139.992020874593 612.9427955005206 1139.992020874593 575.5474276562663
s 9.149930429977097 -10.741222678668766 19.891153108645863 -10.741222678668766
S 1179.7743270918845 538.1520598120121 1179.7743270918845 575.5474276562663
z" fill="none" stroke="none" style="animation-play-state:paused" ></path>


<circle cx="0" cy="0" r="5.739969117948229" fill="#de9dd6" opacity="0.9" transform="translate(1171.4471435546875 557.8818969726562)" style="opacity:0.9;animation-play-state:paused" ></circle>
<path id="path47" d="M 107.97519711029332 472.0464990682095
c 0 33.07292589073098 -8.092311654115024 9.49967020265677 -17.591981856771795 9.49967020265677
S 72.79123339674973 505.1194249589405 72.79123339674973 472.0464990682095
s 8.092311654115024 -9.49967020265677 17.591981856771795 -9.49967020265677
S 107.97519711029332 438.97357317747856 107.97519711029332 472.0464990682095
z" fill="none" stroke="none" style="animation-play-state:paused" ></path>


<circle cx="0" cy="0" r="7.857443684597752" fill="#51cacc" opacity="0.9" transform="translate(107.67993927001953 481.14013671875)" style="opacity:0.9;animation-play-state:paused" ></circle>
<path id="path48" d="M 1104.720073944404 533.5908668955292
c 0 20.50388748439373 -5.016908639798466 5.889414490198199 -10.906323129996665 5.889414490198199
S 1082.9074276844105 554.094754379923 1082.9074276844105 533.5908668955292
s 5.016908639798466 -5.889414490198199 10.906323129996665 -5.889414490198199
S 1104.720073944404 513.0869794111354 1104.720073944404 533.5908668955292
z" fill="none" stroke="none" style="animation-play-state:paused" ></path>


<circle cx="0" cy="0" r="7.633337500821899" fill="#ff708e" opacity="0.9" transform="translate(1104.71826171875 534.0350341796875)" style="opacity:0.9;animation-play-state:paused" ></circle>
<path id="path49" d="M 292.57867012446417 528.4075773615267
c 0 22.453008345299793 -5.493821190871225 6.4492683545010046 -11.94308954537223 6.4492683545010046
S 268.6924910337197 550.8605857068264 268.6924910337197 528.4075773615267
s 5.493821190871225 -6.4492683545010046 11.94308954537223 -6.4492683545010046
S 292.57867012446417 505.9545690162269 292.57867012446417 528.4075773615267
z" fill="none" stroke="none" style="animation-play-state:paused" ></path>


<circle cx="0" cy="0" r="6.698089301143186" fill="#e0ff77" opacity="0.9" transform="translate(269.3534851074219 518.9464111328125)" style="opacity:0.9;animation-play-state:paused" ></circle>
<path id="path50" d="M 1288.7887670964628 387.8143331157044
c 0 35.09824289480503 -8.58786794234591 10.08141019318868 -18.66927813553459 10.08141019318868
S 1251.4502108253937 422.91257601050944 1251.4502108253937 387.8143331157044
s 8.58786794234591 -10.08141019318868 18.66927813553459 -10.08141019318868
S 1288.7887670964628 352.7160902208994 1288.7887670964628 387.8143331157044
z" fill="none" stroke="none" style="animation-play-state:paused" ></path>


<circle cx="0" cy="0" r="7.747292367406604" fill="#51cacc" opacity="0.9" transform="translate(1257.2174072265625 405.89532470703125)" style="opacity:0.9;animation-play-state:paused" ></circle>
<path id="path51" d="M 551.8366608945537 339.80065774044044
c 0 28.763268309749414 -7.037820969406771 8.261789833651427 -15.299610803058199 8.261789833651427
S 521.2374392884374 368.5639260501899 521.2374392884374 339.80065774044044
s 7.037820969406771 -8.261789833651427 15.299610803058199 -8.261789833651427
S 551.8366608945537 311.037389430691 551.8366608945537 339.80065774044044
z" fill="none" stroke="none" style="animation-play-state:paused" ></path>


<circle cx="0" cy="0" r="4.106187721766666" fill="#e0ff77" opacity="0.9" transform="translate(540.6138305664062 349.49591064453125)" style="opacity:0.9;animation-play-state:paused" ></circle>
<path id="path52" d="M 949.1363873237613 331.01590438746564
c 0 26.394218585141502 -6.458159866577175 7.581318104242772 -14.039477970819947 7.581318104242772
S 921.0574313821214 357.41012297260716 921.0574313821214 331.01590438746564
s 6.458159866577175 -7.581318104242772 14.039477970819947 -7.581318104242772
S 949.1363873237613 304.6216858023241 949.1363873237613 331.01590438746564
z" fill="none" stroke="none" style="animation-play-state:paused" ></path>


<circle cx="0" cy="0" r="4.959446805621606" fill="#51cacc" opacity="0.9" transform="translate(949.1287841796875 329.5240478515625)" style="opacity:0.9;animation-play-state:paused" ></circle>
<path id="path53" d="M 630.1735417825914 336.3145404315416
c 0 25.46823214290419 -6.231588715816982 7.315343275089502 -13.546931990906483 7.315343275089502
S 603.0796778007784 361.7827725744458 603.0796778007784 336.3145404315416
s 6.231588715816982 -7.315343275089502 13.546931990906483 -7.315343275089502
S 630.1735417825914 310.84630828863743 630.1735417825914 336.3145404315416
z" fill="none" stroke="none" style="animation-play-state:paused" ></path>


<circle cx="0" cy="0" r="4.538678359289155" fill="#de9dd6" opacity="0.9" transform="translate(626.6494140625 322.87109375)" style="opacity:0.9;animation-play-state:paused" ></circle>
<path id="path54" d="M 593.647830812786 478.8279179487746
c 0 35.60424734335182 -8.711677541458423 10.226751896494672 -18.938429437953094 10.226751896494672
S 555.7709719368797 514.4321652921265 555.7709719368797 478.8279179487746
s 8.711677541458423 -10.226751896494672 18.938429437953094 -10.226751896494672
S 593.647830812786 443.2236706054228 593.647830812786 478.8279179487746
z" fill="none" stroke="none" style="animation-play-state:paused" ></path>


<circle cx="0" cy="0" r="5.82764702653725" fill="#51cacc" opacity="0.9" transform="translate(593.27490234375 468.4016418457031)" style="opacity:0.9;animation-play-state:paused" ></circle>
<path id="path55" d="M 793.9559037403359 409.6561531200243
c 0 28.878860760207417 -7.066104228561389 8.29499192048511 -15.361096149046498 8.29499192048511
S 763.2337114422429 438.53501388023176 763.2337114422429 409.6561531200243
s 7.066104228561389 -8.29499192048511 15.361096149046498 -8.29499192048511
S 793.9559037403359 380.7772923598169 793.9559037403359 409.6561531200243
z" fill="none" stroke="none" style="animation-play-state:paused" ></path>


<circle cx="0" cy="0" r="7.983038427677501" fill="#51cacc" opacity="0.9" transform="translate(793.7521362304688 402.44580078125)" style="opacity:0.9;animation-play-state:paused" ></circle>
<path id="path56" d="M 1171.549200646422 564.6726762386418
c 0 22.461859306154533 -5.495986851505895 6.451810651767792 -11.947797503273687 6.451810651767792
S 1147.6536056398745 587.1345355447963 1147.6536056398745 564.6726762386418
s 5.495986851505895 -6.451810651767792 11.947797503273687 -6.451810651767792
S 1171.549200646422 542.2108169324872 1171.549200646422 564.6726762386418
z" fill="none" stroke="none" style="animation-play-state:paused" ></path>


<circle cx="0" cy="0" r="6.742695914679566" fill="#e0ff77" opacity="0.9" transform="translate(1150.029296875 576.6499633789062)" style="opacity:0.9;animation-play-state:paused" ></circle>
<path id="path57" d="M 359.42320029462223 34.98583957474279
c 0 26.962245861177557 -6.597145263905146 7.744474875019086 -14.341620138924231 7.744474875019086
S 330.7399600167738 61.94808543592035 330.7399600167738 34.98583957474279
s 6.597145263905146 -7.744474875019086 14.341620138924231 -7.744474875019086
S 359.42320029462223 8.023593713565234 359.42320029462223 34.98583957474279
z" fill="none" stroke="none" style="animation-play-state:paused" ></path>


<circle cx="0" cy="0" r="6.162021720050589" fill="#e0ff77" opacity="0.9" transform="translate(358.55169677734375 23.307764053344727)" style="opacity:0.9;animation-play-state:paused" ></circle>
<path id="path58" d="M 220.2897284068924 514.13711128471
c 0 35.807858280935825 -8.761497238952382 10.285235889204971 -19.046733128157353 10.285235889204971
S 182.19626215057772 549.9449695656459 182.19626215057772 514.13711128471
s 8.761497238952382 -10.285235889204971 19.046733128157353 -10.285235889204971
S 220.2897284068924 478.3292530037742 220.2897284068924 514.13711128471
z" fill="none" stroke="none" style="animation-play-state:paused" ></path>


<circle cx="0" cy="0" r="4.817820133262695" fill="#ff708e" opacity="0.9" transform="translate(220.23184204101562 509.4665832519531)" style="opacity:0.9;animation-play-state:paused" ></circle>
<path id="path59" d="M 874.8792091000098 515.274270723222
c 0 23.7593665388126 -5.813462025454146 6.824498899446172 -12.637960924900318 6.824498899446172
S 849.6032872502092 539.0336372620346 849.6032872502092 515.274270723222
s 5.813462025454146 -6.824498899446172 12.637960924900318 -6.824498899446172
S 874.8792091000098 491.5149041844094 874.8792091000098 515.274270723222
z" fill="none" stroke="none" style="animation-play-state:paused" ></path>


<circle cx="0" cy="0" r="5.708536325774729" fill="#ff708e" opacity="0.9" transform="translate(855.6945190429688 504.7333068847656)" style="opacity:0.9;animation-play-state:paused" ></circle>
<path id="path60" d="M 942.8077118348905 295.2433520513496
c 0 27.16305570699688 -6.646279587882214 7.802154298818253 -14.448433886700467 7.802154298818253
S 913.9108440614895 322.40640775834646 913.9108440614895 295.2433520513496
s 6.646279587882214 -7.802154298818253 14.448433886700467 -7.802154298818253
S 942.8077118348905 268.0802963443527 942.8077118348905 295.2433520513496
z" fill="none" stroke="none" style="animation-play-state:paused" ></path>


<circle cx="0" cy="0" r="5.0108337087043315" fill="#9df871" opacity="0.9" transform="translate(942.7673950195312 291.84539794921875)" style="opacity:0.9;animation-play-state:paused" ></circle>
<path id="path61" d="M 700.2770178076512 621.0734002080518
c 0 21.52168366037725 -5.265943874347625 6.181760200321126 -11.44770407466875 6.181760200321126
S 677.3816096583137 642.595083868429 677.3816096583137 621.0734002080518
s 5.265943874347625 -6.181760200321126 11.44770407466875 -6.181760200321126
S 700.2770178076512 599.5517165476746 700.2770178076512 621.0734002080518
z" fill="none" stroke="none" style="animation-play-state:paused" ></path>


<circle cx="0" cy="0" r="4.361777843368188" fill="#ff708e" opacity="0.9" transform="translate(699.1321411132812 610.5157470703125)" style="opacity:0.9;animation-play-state:paused" ></circle>
<path id="path62" d="M 667.5605910541792 304.84697796303516
c 0 21.75656290136351 -5.323414326929369 6.2492255142214335 -11.572639841150803 6.2492255142214335
S 644.4153113718776 326.60354086439867 644.4153113718776 304.84697796303516
s 5.323414326929369 -6.2492255142214335 11.572639841150803 -6.2492255142214335
S 667.5605910541792 283.09041506167165 667.5605910541792 304.84697796303516
z" fill="none" stroke="none" style="animation-play-state:paused" ></path>


<circle cx="0" cy="0" r="6.072688259804392" fill="#9df871" opacity="0.9" transform="translate(644.8825073242188 296.5579833984375)" style="opacity:0.9;animation-play-state:paused" ></circle>
<path id="path63" d="M 446.6946870461252 367.2554703336998
c 0 33.49876039215287 -8.196505202335274 9.621984367958802 -17.818489570294076 9.621984367958802
S 411.0577079055371 400.75423072585266 411.0577079055371 367.2554703336998
s 8.196505202335274 -9.621984367958802 17.818489570294076 -9.621984367958802
S 446.6946870461252 333.75670994154694 446.6946870461252 367.2554703336998
z" fill="none" stroke="none" style="animation-play-state:paused" ></path>


<circle cx="0" cy="0" r="5.481163565743447" fill="#e0ff77" opacity="0.9" transform="translate(438.8368225097656 351.76519775390625)" style="opacity:0.9;animation-play-state:paused" ></circle>
<path id="path64" d="M 578.7390462938257 252.2722730037316
c 0 36.587592899992096 -8.952283369147 10.509202215955176 -19.461485585102174 10.509202215955176
S 539.8160751236213 288.8598659037237 539.8160751236213 252.2722730037316
s 8.952283369147 -10.509202215955176 19.461485585102174 -10.509202215955176
S 578.7390462938257 215.6846801037395 578.7390462938257 252.2722730037316
z" fill="none" stroke="none" style="animation-play-state:paused" ></path>


<circle cx="0" cy="0" r="6.603274870450747" fill="#ff708e" opacity="0.9" transform="translate(541.932373046875 270.5198974609375)" style="opacity:0.9;animation-play-state:paused" ></circle>
<path id="path65" d="M 920.6904589810371 253.87473470554522
c 0 26.035320305259894 -6.3703443300104 7.478230300446992 -13.84857463045739 7.478230300446992
S 892.9933097201223 279.91005501080514 892.9933097201223 253.87473470554522
s 6.3703443300104 -7.478230300446992 13.84857463045739 -7.478230300446992
S 920.6904589810371 227.83941440028534 920.6904589810371 253.87473470554522
z" fill="none" stroke="none" style="animation-play-state:paused" ></path>


<circle cx="0" cy="0" r="4.0138174232902" fill="#51cacc" opacity="0.9" transform="translate(915.6570434570312 266.7779235839844)" style="opacity:0.9;animation-play-state:paused" ></circle>
<path id="path66" d="M 122.84005085032842 486.98311646510297
c 0 19.027571277270148 -4.655682333800142 5.465366217939298 -10.12104855173944 5.465366217939298
S 102.59795374684956 506.01068774237314 102.59795374684956 486.98311646510297
s 4.655682333800142 -5.465366217939298 10.12104855173944 -5.465366217939298
S 122.84005085032842 467.9555451878328 122.84005085032842 486.98311646510297
z" fill="none" stroke="none" style="animation-play-state:paused" ></path>


<circle cx="0" cy="0" r="6.366531290171736" fill="#e0ff77" opacity="0.9" transform="translate(102.69062042236328 482.92266845703125)" style="opacity:0.9;animation-play-state:paused" ></circle>
<path id="path67" d="M 1328.8709369418216 277.3940535550591
c 0 24.870013417346847 -6.085216048925292 7.143514492216648 -13.228730541141939 7.143514492216648
S 1302.4134758595378 302.26406697240594 1302.4134758595378 277.3940535550591
s 6.085216048925292 -7.143514492216648 13.228730541141939 -7.143514492216648
S 1328.8709369418216 252.52404013771223 1328.8709369418216 277.3940535550591
z" fill="none" stroke="none" style="animation-play-state:paused" ></path>


<circle cx="0" cy="0" r="5.120746690688434" fill="#ff708e" opacity="0.9" transform="translate(1326.013916015625 264.1314697265625)" style="opacity:0.9;animation-play-state:paused" ></circle>
<path id="path68" d="M 114.18201152484147 612.9124296355577
c 0 31.721550483581495 -7.761655969386961 9.11150918145426 -16.87316515084122 9.11150918145426
S 80.43568122315904 644.6339801191392 80.43568122315904 612.9124296355577
s 7.761655969386961 -9.11150918145426 16.87316515084122 -9.11150918145426
S 114.18201152484147 581.1908791519762 114.18201152484147 612.9124296355577
z" fill="none" stroke="none" style="animation-play-state:paused" ></path>


<circle cx="0" cy="0" r="5.971647202475456" fill="#9df871" opacity="0.9" transform="translate(111.54219818115234 629.5918579101562)" style="opacity:0.9;animation-play-state:paused" ></circle>
<path id="path69" d="M 505.2749807035637 357.8252483324437
c 0 27.689999630902186 -6.775212675646279 7.953510532280416 -14.728723207926695 7.953510532280416
S 475.8175342877103 385.5152479633459 475.8175342877103 357.8252483324437
s 6.775212675646279 -7.953510532280416 14.728723207926695 -7.953510532280416
S 505.2749807035637 330.1352487015415 505.2749807035637 357.8252483324437
z" fill="none" stroke="none" style="animation-play-state:paused" ></path>


<circle cx="0" cy="0" r="5.081891873095549" fill="#51cacc" opacity="0.9" transform="translate(500.0785217285156 343.9872741699219)" style="opacity:0.9;animation-play-state:paused" ></circle>
<path id="path70" d="M 968.8852932520045 57.62118068833535
c 0 35.80232782846578 -8.760144043135242 10.28364735498485 -19.043791398120092 10.28364735498485
S 930.7977104557643 93.42350851680112 930.7977104557643 57.62118068833535
s 8.760144043135242 -10.28364735498485 19.043791398120092 -10.28364735498485
S 968.8852932520045 21.818852859869573 968.8852932520045 57.62118068833535
z" fill="none" stroke="none" style="animation-play-state:paused" ></path>


<circle cx="0" cy="0" r="6.159360339669606" fill="#ff708e" opacity="0.9" transform="translate(963.4281616210938 76.29817962646484)" style="opacity:0.9;animation-play-state:paused" ></circle>
<path id="path71" d="M 102.81694929277478 358.407650499735
c 0 32.81415727675139 -8.028995929417892 9.425343047577526 -17.45433897699542 9.425343047577526
S 67.90827133878395 391.22180777648634 67.90827133878395 358.407650499735
s 8.028995929417892 -9.425343047577526 17.45433897699542 -9.425343047577526
S 102.81694929277478 325.5934932229836 102.81694929277478 358.407650499735
z" fill="none" stroke="none" style="animation-play-state:paused" ></path>


<circle cx="0" cy="0" r="7.80987290360989" fill="#51cacc" opacity="0.9" transform="translate(67.91038513183594 359.2745361328125)" style="opacity:0.9;animation-play-state:paused" ></circle>
<path id="path72" d="M 723.0966098890535 601.2795491781138
c 0 24.99250684514251 -6.115187845088061 7.178698774668594 -13.293886619756654 7.178698774668594
S 696.5088366495402 626.2720560232564 696.5088366495402 601.2795491781138
s 6.115187845088061 -7.178698774668594 13.293886619756654 -7.178698774668594
S 723.0966098890535 576.2870423329713 723.0966098890535 601.2795491781138
z" fill="none" stroke="none" style="animation-play-state:paused" ></path>


<circle cx="0" cy="0" r="7.551939183383951" fill="#9df871" opacity="0.9" transform="translate(710.45556640625 608.5061645507812)" style="opacity:0.9;animation-play-state:paused" ></circle>
<path id="path73" d="M 485.84882586592516 344.5290091131964
c 0 26.702143042125442 -6.533503084775374 7.669764490823265 -14.20326757559864 7.669764490823265
S 457.44229071472785 371.23115215532187 457.44229071472785 344.5290091131964
s 6.533503084775374 -7.669764490823265 14.20326757559864 -7.669764490823265
S 485.84882586592516 317.826866071071 485.84882586592516 344.5290091131964
z" fill="none" stroke="none" style="animation-play-state:paused" ></path>


<circle cx="0" cy="0" r="6.42855356713844" fill="#e0ff77" opacity="0.9" transform="translate(458.7789001464844 357.4595642089844)" style="opacity:0.9;animation-play-state:paused" ></circle>
<path id="path74" d="M 759.5427101740638 448.41698359544364
c 0 35.075654060545865 -8.582340887154839 10.074921911007856 -18.657262798162694 10.074921911007856
S 722.2281845777384 483.4926376559895 722.2281845777384 448.41698359544364
s 8.582340887154839 -10.074921911007856 18.657262798162694 -10.074921911007856
S 759.5427101740638 413.3413295348978 759.5427101740638 448.41698359544364
z" fill="none" stroke="none" style="animation-play-state:paused" ></path>


<circle cx="0" cy="0" r="5.021799216864318" fill="#9df871" opacity="0.9" transform="translate(722.5029296875 439.2757873535156)" style="opacity:0.9;animation-play-state:paused" ></circle>
<path id="path75" d="M 635.0964833485345 390.7208344801447
c 0 27.758666890984376 -6.792014239283411 7.973234106984874 -14.765248346268285 7.973234106984874
S 605.5659866559979 418.47950137112906 605.5659866559979 390.7208344801447
s 6.792014239283411 -7.973234106984874 14.765248346268285 -7.973234106984874
S 635.0964833485345 362.9621675891603 635.0964833485345 390.7208344801447
z" fill="none" stroke="none" style="animation-play-state:paused" ></path>


<circle cx="0" cy="0" r="7.518755456709754" fill="#e0ff77" opacity="0.9" transform="translate(635.0935668945312 391.6459655761719)" style="opacity:0.9;animation-play-state:paused" ></circle>
<path id="path76" d="M 559.6264606679292 613.5037616609586
c 0 33.86471284058504 -8.286046758866553 9.727098369104215 -18.013145127970766 9.727098369104215
S 523.6001704119876 647.3684745015437 523.6001704119876 613.5037616609586
s 8.286046758866553 -9.727098369104215 18.013145127970766 -9.727098369104215
S 559.6264606679292 579.6390488203735 559.6264606679292 613.5037616609586
z" fill="none" stroke="none" style="animation-play-state:paused" ></path>


<circle cx="0" cy="0" r="7.597736324220247" fill="#ff708e" opacity="0.9" transform="translate(538.5489501953125 623.9594116210938)" style="opacity:0.9;animation-play-state:paused" ></circle>
<path id="path77" d="M 254.6467736126187 582.4159943250755
c 0 34.48800271757777 -8.438553856428602 9.906128440155317 -18.34468229658392 9.906128440155317
S 217.95740901945084 616.9039970426533 217.95740901945084 582.4159943250755
s 8.438553856428602 -9.906128440155317 18.34468229658392 -9.906128440155317
S 254.6467736126187 547.9279916074978 254.6467736126187 582.4159943250755
z" fill="none" stroke="none" style="animation-play-state:paused" ></path>


<circle cx="0" cy="0" r="7.062118923770517" fill="#e0ff77" opacity="0.9" transform="translate(218.87579345703125 596.5089111328125)" style="opacity:0.9;animation-play-state:paused" ></circle>
<path id="path78" d="M 962.0971198565624 165.71821874563486
c 0 30.475992376115723 -7.456891751602782 8.753742491011963 -16.210634242614745 8.753742491011963
S 929.6758513713328 196.19421112175058 929.6758513713328 165.71821874563486
s 7.456891751602782 -8.753742491011963 16.210634242614745 -8.753742491011963
S 962.0971198565624 135.24222636951913 962.0971198565624 165.71821874563486
z" fill="none" stroke="none" style="animation-play-state:paused" ></path>


<circle cx="0" cy="0" r="6.978673942635255" fill="#de9dd6" opacity="0.9" transform="translate(947.3335571289062 156.7755889892578)" style="opacity:0.9;animation-play-state:paused" ></circle>
<path id="path79" d="M 887.4004569619832 183.2776393660369
c 0 20.770654601020443 -5.082181444930534 5.9660390875271485 -11.048220532457682 5.9660390875271485
S 865.3040158970679 204.04829396705736 865.3040158970679 183.2776393660369
s 5.082181444930534 -5.9660390875271485 11.048220532457682 -5.9660390875271485
S 887.4004569619832 162.50698476501645 887.4004569619832 183.2776393660369
z" fill="none" stroke="none" style="animation-play-state:paused" ></path>


<circle cx="0" cy="0" r="7.944261858772855" fill="#de9dd6" opacity="0.9" transform="translate(875.91259765625 177.28521728515625)" style="opacity:0.9;animation-play-state:paused" ></circle>
<path id="path80" d="M 499.3644854646532 250.17939760064323
c 0 20.818338519409195 -5.093848786663951 5.979735532170726 -11.073584318834676 5.979735532170726
S 477.2173168269839 270.9977361200524 477.2173168269839 250.17939760064323
s 5.093848786663951 -5.979735532170726 11.073584318834676 -5.979735532170726
S 499.3644854646532 229.36105908123403 499.3644854646532 250.17939760064323
z" fill="none" stroke="none" style="animation-play-state:paused" ></path>


<circle cx="0" cy="0" r="7.1135785071240765" fill="#e0ff77" opacity="0.9" transform="translate(480.6475524902344 260.89849853515625)" style="opacity:0.9;animation-play-state:paused" ></circle>
<path id="path81" d="M 1281.3159699097507 413.33731021408215
c 0 21.99127073345961 -5.38084283903799 6.316641593653293 -11.697484432691283 6.316641593653293
S 1257.9210010443683 435.32858094754175 1257.9210010443683 413.33731021408215
s 5.38084283903799 -6.316641593653293 11.697484432691283 -6.316641593653293
S 1281.3159699097507 391.34603948062255 1281.3159699097507 413.33731021408215
z" fill="none" stroke="none" style="animation-play-state:paused" ></path>


<circle cx="0" cy="0" r="6.275850309240799" fill="#e0ff77" opacity="0.9" transform="translate(1258.233642578125 406.0971374511719)" style="opacity:0.9;animation-play-state:paused" ></circle>
<path id="path82" d="M 228.2257149607393 393.924265319315
c 0 23.501432088550647 -5.750350404645371 6.750411344583697 -12.500761749229067 6.750411344583697
S 203.22419146228117 417.42569740786564 203.22419146228117 393.924265319315
s 5.750350404645371 -6.750411344583697 12.500761749229067 -6.750411344583697
S 228.2257149607393 370.42283323076435 228.2257149607393 393.924265319315
z" fill="none" stroke="none" style="animation-play-state:paused" ></path>


<circle cx="0" cy="0" r="7.4071567269345815" fill="#ff708e" opacity="0.9" transform="translate(208.9351043701172 383.226318359375)" style="opacity:0.9;animation-play-state:paused" ></circle>
<path id="path83" d="M 471.4093979169928 266.2866419074131
c 0 33.84675406792086 -8.281652591087019 9.721939998232587 -18.003592589319606 9.721939998232587
S 435.40221273835357 300.133395975334 435.40221273835357 266.2866419074131
s 8.281652591087019 -9.721939998232587 18.003592589319606 -9.721939998232587
S 471.4093979169928 232.43988783949226 471.4093979169928 266.2866419074131
z" fill="none" stroke="none" style="animation-play-state:paused" ></path>


<circle cx="0" cy="0" r="7.98411099062055" fill="#de9dd6" opacity="0.9" transform="translate(469.04913330078125 283.7048645019531)" style="opacity:0.9;animation-play-state:paused" ></circle>
<path id="path84" d="M 428.72124053985203 557.0598517127129
c 0 20.376644195627602 -4.985774643611008 5.852865885978141 -10.83864052958915 5.852865885978141
S 407.0439594806737 577.4364959083405 407.0439594806737 557.0598517127129
s 4.985774643611008 -5.852865885978141 10.83864052958915 -5.852865885978141
S 428.72124053985203 536.6832075170853 428.72124053985203 557.0598517127129
z" fill="none" stroke="none" style="animation-play-state:paused" ></path>


<circle cx="0" cy="0" r="6.314115342646501" fill="#de9dd6" opacity="0.9" transform="translate(407.1429748535156 561.4036254882812)" style="opacity:0.9;animation-play-state:paused" ></circle>
<path id="path85" d="M 546.558367957105 529.1016406992952
c 0 36.13940125577539 -8.84261945620036 10.38046631814825 -19.22308577434861 10.38046631814825
S 508.1121964084078 565.2410419550706 508.1121964084078 529.1016406992952
s 8.84261945620036 -10.38046631814825 19.22308577434861 -10.38046631814825
S 546.558367957105 492.9622394435198 546.558367957105 529.1016406992952
z" fill="none" stroke="none" style="animation-play-state:paused" ></path>


<circle cx="0" cy="0" r="4.311198135305427" fill="#e0ff77" opacity="0.9" transform="translate(508.2264404296875 535.4808349609375)" style="opacity:0.9;animation-play-state:paused" ></circle>
<path id="path86" d="M 626.9780805729165 217.2697147031881
c 0 22.696581901494902 -5.553418975897688 6.519230971705983 -12.07264994760367 6.519230971705983
S 602.8327806777093 239.966296604683 602.8327806777093 217.2697147031881
s 5.553418975897688 -6.519230971705983 12.07264994760367 -6.519230971705983
S 626.9780805729165 194.5731328016932 626.9780805729165 217.2697147031881
z" fill="none" stroke="none" style="animation-play-state:paused" ></path>


<circle cx="0" cy="0" r="4.316509956977659" fill="#51cacc" opacity="0.9" transform="translate(625.715087890625 206.03443908691406)" style="opacity:0.9;animation-play-state:paused" ></circle>
<path id="path87" d="M 1176.2925050831016 611.9348201206183
c 0 35.968985566785314 -8.800922000383638 10.331517130885143 -19.132439131268782 10.331517130885143
S 1138.0276268205641 647.9038056874036 1138.0276268205641 611.9348201206183
s 8.800922000383638 -10.331517130885143 19.132439131268782 -10.331517130885143
S 1176.2925050831016 575.9658345538329 1176.2925050831016 611.9348201206183
z" fill="none" stroke="none" style="animation-play-state:paused" ></path>


<circle cx="0" cy="0" r="4.827897127824756" fill="#51cacc" opacity="0.9" transform="translate(1173.043212890625 592.890625)" style="opacity:0.9;animation-play-state:paused" ></circle>
<path id="path88" d="M 548.9985583729276 483.51445822627
c 0 21.36954837994473 -5.228719284454562 6.13806176870753 -11.366781053162091 6.13806176870753
S 526.2649962666035 504.8840066062147 526.2649962666035 483.51445822627
s 5.228719284454562 -6.13806176870753 11.366781053162091 -6.13806176870753
S 548.9985583729276 462.1449098463253 548.9985583729276 483.51445822627
z" fill="none" stroke="none" style="animation-play-state:paused" ></path>


<circle cx="0" cy="0" r="5.022129380128484" fill="#ff708e" opacity="0.9" transform="translate(541.59423828125 475.6482849121094)" style="opacity:0.9;animation-play-state:paused" ></circle>
<path id="path89" d="M 309.50272564452524 558.8843266423385
c 0 29.055017897741575 -7.109206506894214 8.345590247223644 -15.454796754117858 8.345590247223644
S 278.5931321362895 587.93934454008 278.5931321362895 558.8843266423385
s 7.109206506894214 -8.345590247223644 15.454796754117858 -8.345590247223644
S 309.50272564452524 529.8293087445969 309.50272564452524 558.8843266423385
z" fill="none" stroke="none" style="animation-play-state:paused" ></path>


<circle cx="0" cy="0" r="7.670270045293865" fill="#51cacc" opacity="0.9" transform="translate(286.6703186035156 546.5397338867188)" style="opacity:0.9;animation-play-state:paused" ></circle>
<path id="path90" d="M 559.8937689264584 88.8116476724
c 0 35.87687677974693 -8.77838474398063 10.305060351629438 -19.08344509561007 10.305060351629438
S 521.7268787352383 124.68852445214694 521.7268787352383 88.8116476724
s 8.77838474398063 -10.305060351629438 19.08344509561007 -10.305060351629438
S 559.8937689264584 52.93477089265307 559.8937689264584 88.8116476724
z" fill="none" stroke="none" style="animation-play-state:paused" ></path>


<circle cx="0" cy="0" r="7.110282544213332" fill="#51cacc" opacity="0.9" transform="translate(544.4789428710938 77.53365325927734)" style="opacity:0.9;animation-play-state:paused" ></circle>
<path id="path91" d="M 307.1662789625156 445.3003218789379
c 0 26.304823755606773 -6.4362866636059115 7.555640865972158 -13.99192752957807 7.555640865972158
S 279.1824239033595 471.60514563454467 279.1824239033595 445.3003218789379
s 6.4362866636059115 -7.555640865972158 13.99192752957807 -7.555640865972158
S 307.1662789625156 418.9954981233311 307.1662789625156 445.3003218789379
z" fill="none" stroke="none" style="animation-play-state:paused" ></path>


<circle cx="0" cy="0" r="4.500277466009773" fill="#9df871" opacity="0.9" transform="translate(302.2789306640625 432.11920166015625)" style="opacity:0.9;animation-play-state:paused" ></circle>
<path id="path92" d="M 1042.0453254902905 415.72712497140753
c 0 34.76523634475866 -8.506387616270736 9.985759375622168 -18.492146991892902 9.985759375622168
S 1005.0610315065047 450.4923613161662 1005.0610315065047 415.72712497140753
s 8.506387616270736 -9.985759375622168 18.492146991892902 -9.985759375622168
S 1042.0453254902905 380.9618886266489 1042.0453254902905 415.72712497140753
z" fill="none" stroke="none" style="animation-play-state:paused" ></path>


<circle cx="0" cy="0" r="6.624703873580375" fill="#e0ff77" opacity="0.9" transform="translate(1005.3040161132812 407.0819091796875)" style="opacity:0.9;animation-play-state:paused" ></circle>
<path id="path93" d="M 1162.8137587361102 115.10892770313966
c 0 32.3643538203441 -7.918937636892704 9.296144182439262 -17.215081819331964 9.296144182439262
S 1128.3835950974462 147.47328152348376 1128.3835950974462 115.10892770313966
s 7.918937636892704 -9.296144182439262 17.215081819331964 -9.296144182439262
S 1162.8137587361102 82.74457388279555 1162.8137587361102 115.10892770313966
z" fill="none" stroke="none" style="animation-play-state:paused" ></path>


<circle cx="0" cy="0" r="5.683820659347703" fill="#e0ff77" opacity="0.9" transform="translate(1129.3758544921875 128.91282653808594)" style="opacity:0.9;animation-play-state:paused" ></circle>
<path id="path94" d="M 1178.662559192442 13.499538643301307
c 0 26.325991998471206 -6.441466127285507 7.561721105943857 -14.003187233229363 7.561721105943857
S 1150.6561847259834 39.82553064177252 1150.6561847259834 13.499538643301307
s 6.441466127285507 -7.561721105943857 14.003187233229363 -7.561721105943857
S 1178.662559192442 -12.8264533551699 1178.662559192442 13.499538643301307
z" fill="none" stroke="none" style="animation-play-state:paused" ></path>


<circle cx="0" cy="0" r="7.756884024883698" fill="#9df871" opacity="0.9" transform="translate(1178.6495361328125 11.557305335998535)" style="opacity:0.9;animation-play-state:paused" ></circle>
<path id="path95" d="M 1260.5338052720404 382.5763842714744
c 0 33.04161687059437 -8.084650936422024 9.490677186234553 -17.57532812265658 9.490677186234553
S 1225.383149026727 415.6180011420688 1225.383149026727 382.5763842714744
s 8.084650936422024 -9.490677186234553 17.57532812265658 -9.490677186234553
S 1260.5338052720404 349.53476740088 1260.5338052720404 382.5763842714744
z" fill="none" stroke="none" style="animation-play-state:paused" ></path>


<circle cx="0" cy="0" r="5.25568697526233" fill="#ff708e" opacity="0.9" transform="translate(1260.4024658203125 376.1212463378906)" style="opacity:0.9;animation-play-state:paused" ></circle>
<path id="path96" d="M 1299.0089646475171 338.69342698619687
c 0 20.34200419845038 -4.977298899620837 5.842916099554896 -10.820214999175732 5.842916099554896
S 1277.3685346491657 359.0354311846472 1277.3685346491657 338.69342698619687
s 4.977298899620837 -5.842916099554896 10.820214999175732 -5.842916099554896
S 1299.0089646475171 318.3514227877465 1299.0089646475171 338.69342698619687
z" fill="none" stroke="none" style="animation-play-state:paused" ></path>


<circle cx="0" cy="0" r="5.236777998984332" fill="#de9dd6" opacity="0.9" transform="translate(1287.2186279296875 332.7234191894531)" style="opacity:0.9;animation-play-state:paused" ></circle>
<path id="path97" d="M 550.2821856563554 351.52037075116067
c 0 27.20750422238312 -6.657155288455443 7.81492142557813 -14.472076714033573 7.81492142557813
S 521.3380322282882 378.7278749735438 521.3380322282882 351.52037075116067
s 6.657155288455443 -7.81492142557813 14.472076714033573 -7.81492142557813
S 550.2821856563554 324.31286652877753 550.2821856563554 351.52037075116067
z" fill="none" stroke="none" style="animation-play-state:paused" ></path>


<circle cx="0" cy="0" r="4.403330596327591" fill="#ff708e" opacity="0.9" transform="translate(524.3092041015625 366.03326416015625)" style="opacity:0.9;animation-play-state:paused" ></circle>
<path id="path98" d="M 108.39015651724102 148.05084886144104
c 0 22.863866018673363 -5.594350196058375 6.567280664938093 -12.161630860996468 6.567280664938093
S 84.06689479524809 170.9147148801144 84.06689479524809 148.05084886144104
s 5.594350196058375 -6.567280664938093 12.161630860996468 -6.567280664938093
S 108.39015651724102 125.18698284276768 108.39015651724102 148.05084886144104
z" fill="none" stroke="none" style="animation-play-state:paused" ></path>


<circle cx="0" cy="0" r="7.066823124918621" fill="#ff708e" opacity="0.9" transform="translate(89.07696533203125 137.18295288085938)" style="opacity:0.9;animation-play-state:paused" ></circle>
<path id="path99" d="M 275.6440181288611 499.1237940110268
c 0 36.381533781887406 -8.901864648759682 10.45001502245702 -19.351879671216704 10.45001502245702
S 236.9402587864277 535.5053277929142 236.9402587864277 499.1237940110268
s 8.901864648759682 -10.45001502245702 19.351879671216704 -10.45001502245702
S 275.6440181288611 462.7422602291394 275.6440181288611 499.1237940110268
z" fill="none" stroke="none" style="animation-play-state:paused" ></path>


<circle cx="0" cy="0" r="4.502537692217609" fill="#51cacc" opacity="0.9" transform="translate(246.1179962158203 482.8531799316406)" style="opacity:0.9;animation-play-state:paused" ></circle></g></svg>